<?xml version="1.0" encoding="UTF-8" standalone="no"?>
<svg width="181px" height="162px" viewBox="0 0 181 162" version="1.1" xmlns="http://www.w3.org/2000/svg" xmlns:xlink="http://www.w3.org/1999/xlink" xmlns:sketch="http://www.bohemiancoding.com/sketch/ns">
    <!-- Generator: Sketch 3.5.1 (25234) - http://www.bohemiancoding.com/sketch -->
    <title>bigBuildings</title>
    <desc>Created with Sketch.</desc>
    <defs></defs>
    <g id="Welcome" stroke="none" stroke-width="1" fill="none" fill-rule="evenodd" sketch:type="MSPage">
        <g id="Desktop" sketch:type="MSArtboardGroup" transform="translate(-799.000000, -421.000000)" fill="#000000">
            <g id="bigBuildings" sketch:type="MSLayerGroup" transform="translate(799.000000, 421.000000)">
                <g id="buildings-18" sketch:type="MSShapeGroup">
                    <g id="Group">
                        <g id="Shape">
                            <path d="M129.716667,64.8 L174.966667,64.8 L174.966667,162 L129.716667,162 L129.716667,64.8 L129.716667,64.8 Z M135.75,156.6 L168.933333,156.6 L168.933333,70.2 L135.75,70.2 L135.75,156.6 L135.75,156.6 Z"></path>
                            <path d="M6.03333333,64.8 L51.2833333,64.8 L51.2833333,162 L6.03333333,162 L6.03333333,64.8 L6.03333333,64.8 Z M12.0666667,156.6 L45.25,156.6 L45.25,70.2 L12.0666667,70.2 L12.0666667,156.6 L12.0666667,156.6 Z"></path>
                            <path d="M45.25,27 L135.75,27 L135.75,162 L45.25,162 L45.25,27 L45.25,27 Z M51.2833333,156.6 L129.716667,156.6 L129.716667,32.4 L51.2833333,32.4 L51.2833333,156.6 L51.2833333,156.6 Z"></path>
                            <path d="M177.983333,162 L3.01666667,162 C1.35146667,162 0,160.7904 0,159.3 C0,157.8096 1.35146667,156.6 3.01666667,156.6 L177.983333,156.6 C179.648533,156.6 181,157.8096 181,159.3 C181,160.7904 179.648533,162 177.983333,162"></path>
                            <path d="M63.35,13.5 L117.65,13.5 L117.65,32.4 L63.35,32.4 L63.35,13.5 L63.35,13.5 Z M69.3833333,27 L111.616667,27 L111.616667,18.9 L69.3833333,18.9 L69.3833333,27 L69.3833333,27 Z"></path>
                            <path d="M90.5,18.9 C88.8348,18.9 87.4833333,17.6904 87.4833333,16.2 L87.4833333,2.7 C87.4833333,1.2096 88.8348,0 90.5,0 C92.1652,0 93.5166667,1.2096 93.5166667,2.7 L93.5166667,16.2 C93.5166667,17.6904 92.1652,18.9 90.5,18.9"></path>
                            <path d="M36.2,78.3 L21.1166667,78.3 C19.4514667,78.3 18.1,77.0904 18.1,75.6 C18.1,74.1096 19.4514667,72.9 21.1166667,72.9 L36.2,72.9 C37.8652,72.9 39.2166667,74.1096 39.2166667,75.6 C39.2166667,77.0904 37.8652,78.3 36.2,78.3"></path>
                            <path d="M36.2,89.1 L21.1166667,89.1 C19.4514667,89.1 18.1,87.8904 18.1,86.4 C18.1,84.9096 19.4514667,83.7 21.1166667,83.7 L36.2,83.7 C37.8652,83.7 39.2166667,84.9096 39.2166667,86.4 C39.2166667,87.8904 37.8652,89.1 36.2,89.1"></path>
                            <path d="M36.2,99.9 L21.1166667,99.9 C19.4514667,99.9 18.1,98.6904 18.1,97.2 C18.1,95.7096 19.4514667,94.5 21.1166667,94.5 L36.2,94.5 C37.8652,94.5 39.2166667,95.7096 39.2166667,97.2 C39.2166667,98.6904 37.8652,99.9 36.2,99.9"></path>
                            <path d="M36.2,110.7 L21.1166667,110.7 C19.4514667,110.7 18.1,109.4904 18.1,108 C18.1,106.5096 19.4514667,105.3 21.1166667,105.3 L36.2,105.3 C37.8652,105.3 39.2166667,106.5096 39.2166667,108 C39.2166667,109.4904 37.8652,110.7 36.2,110.7"></path>
                            <path d="M36.2,121.5 L21.1166667,121.5 C19.4514667,121.5 18.1,120.2904 18.1,118.8 C18.1,117.3096 19.4514667,116.1 21.1166667,116.1 L36.2,116.1 C37.8652,116.1 39.2166667,117.3096 39.2166667,118.8 C39.2166667,120.2904 37.8652,121.5 36.2,121.5"></path>
                            <path d="M36.2,132.3 L21.1166667,132.3 C19.4514667,132.3 18.1,131.0904 18.1,129.6 C18.1,128.1096 19.4514667,126.9 21.1166667,126.9 L36.2,126.9 C37.8652,126.9 39.2166667,128.1096 39.2166667,129.6 C39.2166667,131.0904 37.8652,132.3 36.2,132.3"></path>
                            <path d="M36.2,143.1 L21.1166667,143.1 C19.4514667,143.1 18.1,141.8904 18.1,140.4 C18.1,138.9096 19.4514667,137.7 21.1166667,137.7 L36.2,137.7 C37.8652,137.7 39.2166667,138.9096 39.2166667,140.4 C39.2166667,141.8904 37.8652,143.1 36.2,143.1"></path>
                            <path d="M36.2,153.9 L21.1166667,153.9 C19.4514667,153.9 18.1,152.6904 18.1,151.2 C18.1,149.7096 19.4514667,148.5 21.1166667,148.5 L36.2,148.5 C37.8652,148.5 39.2166667,149.7096 39.2166667,151.2 C39.2166667,152.6904 37.8652,153.9 36.2,153.9"></path>
                            <path d="M144.8,151.2 C143.1348,151.2 141.783333,149.9904 141.783333,148.5 L141.783333,78.3 C141.783333,76.8096 143.1348,75.6 144.8,75.6 C146.4652,75.6 147.816667,76.8096 147.816667,78.3 L147.816667,148.5 C147.816667,149.9904 146.4652,151.2 144.8,151.2"></path>
                            <path d="M159.883333,151.2 C158.218133,151.2 156.866667,149.9904 156.866667,148.5 L156.866667,78.3 C156.866667,76.8096 158.218133,75.6 159.883333,75.6 C161.548533,75.6 162.9,76.8096 162.9,78.3 L162.9,148.5 C162.9,149.9904 161.548533,151.2 159.883333,151.2"></path>
                            <path d="M57.3166667,37.8 L84.4666667,37.8 L84.4666667,62.1 L57.3166667,62.1 L57.3166667,37.8 L57.3166667,37.8 Z M63.35,56.7 L78.4333333,56.7 L78.4333333,43.2 L63.35,43.2 L63.35,56.7 L63.35,56.7 Z"></path>
                            <path d="M96.5333333,37.8 L123.683333,37.8 L123.683333,62.1 L96.5333333,62.1 L96.5333333,37.8 L96.5333333,37.8 Z M102.566667,56.7 L117.65,56.7 L117.65,43.2 L102.566667,43.2 L102.566667,56.7 L102.566667,56.7 Z"></path>
                            <path d="M57.3166667,67.5 L84.4666667,67.5 L84.4666667,91.8 L57.3166667,91.8 L57.3166667,67.5 L57.3166667,67.5 Z M63.35,86.4 L78.4333333,86.4 L78.4333333,72.9 L63.35,72.9 L63.35,86.4 L63.35,86.4 Z"></path>
                            <path d="M96.5333333,67.5 L123.683333,67.5 L123.683333,91.8 L96.5333333,91.8 L96.5333333,67.5 L96.5333333,67.5 Z M102.566667,86.4 L117.65,86.4 L117.65,72.9 L102.566667,72.9 L102.566667,86.4 L102.566667,86.4 Z"></path>
                            <path d="M57.3166667,97.2 L84.4666667,97.2 L84.4666667,121.5 L57.3166667,121.5 L57.3166667,97.2 L57.3166667,97.2 Z M63.35,116.1 L78.4333333,116.1 L78.4333333,102.6 L63.35,102.6 L63.35,116.1 L63.35,116.1 Z"></path>
                            <path d="M96.5333333,97.2 L123.683333,97.2 L123.683333,121.5 L96.5333333,121.5 L96.5333333,97.2 L96.5333333,97.2 Z M102.566667,116.1 L117.65,116.1 L117.65,102.6 L102.566667,102.6 L102.566667,116.1 L102.566667,116.1 Z"></path>
                            <path d="M57.3166667,126.9 L84.4666667,126.9 L84.4666667,151.2 L57.3166667,151.2 L57.3166667,126.9 L57.3166667,126.9 Z M63.35,145.8 L78.4333333,145.8 L78.4333333,132.3 L63.35,132.3 L63.35,145.8 L63.35,145.8 Z"></path>
                            <path d="M96.5333333,126.9 L123.683333,126.9 L123.683333,151.2 L96.5333333,151.2 L96.5333333,126.9 L96.5333333,126.9 Z M102.566667,145.8 L117.65,145.8 L117.65,132.3 L102.566667,132.3 L102.566667,145.8 L102.566667,145.8 Z"></path>
                        </g>
                    </g>
                </g>
            </g>
        </g>
    </g>
</svg>