<?xml version="1.0" encoding="UTF-8" standalone="no"?>
<svg width="71px" height="514px" viewBox="0 0 71 514" version="1.1" xmlns="http://www.w3.org/2000/svg" xmlns:xlink="http://www.w3.org/1999/xlink" xmlns:sketch="http://www.bohemiancoding.com/sketch/ns">
    <!-- Generator: Sketch 3.5.1 (25234) - http://www.bohemiancoding.com/sketch -->
    <title>cnTower</title>
    <desc>Created with Sketch.</desc>
    <defs></defs>
    <g id="Welcome" stroke="none" stroke-width="1" fill="none" fill-rule="evenodd" sketch:type="MSPage">
        <g id="Desktop" sketch:type="MSArtboardGroup" transform="translate(-788.000000, -68.000000)" fill="#000000">
            <g id="cnTower" sketch:type="MSLayerGroup" transform="translate(823.500000, 325.000000) scale(-1, 1) translate(-823.500000, -325.000000) translate(788.000000, 66.000000)">
                <g id="Group" sketch:type="MSShapeGroup">
                    <path d="M12.7140714,515.68454 C12.6481429,515.68454 12.5822143,515.67418 12.5162857,515.67418 C10.3964286,515.5654 8.75835714,513.72132 8.86992857,511.55608 L21.1326429,263.5584 C17.1312857,262.71406 10.8275,260.5799 6.20742857,255.24968 C1.89164286,250.27688 -3.23630012e-14,243.72936 0.573071429,235.80914 C0.923,225.76512 6.13135714,218.9845 8.43378571,216.46184 C8.58085714,214.76798 8.75835714,211.23004 8.86992857,208.24636 C8.90542857,207.27252 9.28578571,206.35566 9.94507143,205.65636 C10.2595,205.33002 16.9892857,198.3163 26.4880714,196.063 L26.4880714,126.83748 C24.9869286,125.19024 22.8873571,122.1962 22.5425,118.08846 C22.2179286,114.18274 23.5466429,110.34436 26.4880714,106.6562 L26.4880714,67.95124 C26.4880714,67.03956 26.8025,66.15896 27.3654286,65.45448 L29.5968571,62.68836 L29.5968571,49.95592 C29.5968571,49.469 29.6881429,48.98208 29.8605714,48.52624 L31.5595,44.07662 L31.5595,6.24708 C31.5595,4.07666 33.2787143,2.32064 35.4036429,2.32064 C37.5285714,2.32064 39.2477857,4.07666 39.2477857,6.24708 L39.2477857,44.807 C39.2477857,45.29392 39.1565,45.78084 38.9840714,46.23668 L37.2851429,50.69148 L37.2851429,64.09214 C37.2851429,64.99864 36.9757857,65.88442 36.4077857,66.5889 L34.1763571,69.35502 L34.1763571,108.11696 C34.1763571,109.10116 33.8112143,110.05428 33.157,110.77948 C31.0422143,113.12084 30.0482143,115.3327 30.1952857,117.35808 C30.3981429,120.12938 32.6853571,122.0408 32.7056429,122.06152 C33.6134286,122.80744 34.1763571,123.9574 34.1763571,125.1488 L34.1763571,199.38338 C34.1763571,201.41394 32.6650714,203.1078 30.6872143,203.29428 C24.211,203.91588 18.6831429,208.21528 16.4872143,210.15778 C16.1119286,219.84438 15.8127143,220.1241 14.5955714,221.25334 C14.3521429,221.47608 8.54028571,226.9876 8.25121429,236.14584 C8.25121429,236.20282 8.24614286,236.2598 8.24107143,236.31678 C7.81507143,242.0614 9.0525,246.66124 11.9229286,249.99716 C16.8726429,255.74178 25.2506429,256.2546 25.3317857,256.25978 C27.4465714,256.36856 29.0947857,258.21782 28.9882857,260.38306 L16.543,511.94976 C16.4466429,514.04248 14.7477143,515.68454 12.7140714,515.68454 L12.7140714,515.68454 Z" id="Shape"></path>
                    <path d="M57.9258571,515.68454 C55.8972857,515.68454 54.1983571,514.05802 54.0867857,511.94976 L41.109,260.38824 C41.0532143,259.34188 41.4183571,258.31624 42.103,257.53924 C42.7927143,256.76742 43.7613571,256.3064 44.7857857,256.25978 C44.8618571,256.2546 53.9346429,255.72624 59.1176429,249.70708 C61.9576429,246.40742 63.1747857,241.91118 62.7386429,236.3375 C62.7335714,236.27534 62.7335714,236.21836 62.7335714,236.15102 C62.4292857,227.01868 56.374,221.53824 56.1153571,221.31032 C54.8475,220.17072 54.5330714,219.891 54.1425714,210.20958 C51.8350714,208.24636 46.0536429,203.93142 39.192,203.29946 C37.2090714,203.11816 35.6927143,201.41912 35.6927143,199.38856 L35.6927143,125.15398 C35.6927143,123.9056 36.2708571,122.73492 37.2547143,121.99418 L37.2547143,121.99418 C37.2547143,121.99418 39.6484286,120.0724 39.8462143,117.33736 C39.9882143,115.35342 38.9536429,113.16746 36.7678571,110.84682 C36.0781429,110.11126 35.6977857,109.13742 35.6977857,108.12732 L35.6977857,69.412 L33.3801429,66.66142 C32.7817143,65.94658 32.4520714,65.04008 32.4520714,64.1025 L32.4520714,50.72256 L30.6872143,46.29366 C30.4995714,45.82746 30.4032143,45.31982 30.4032143,44.81218 L30.4032143,6.24708 C30.4032143,4.07666 32.1224286,2.32064 34.2473571,2.32064 C36.3722857,2.32064 38.0915,4.07666 38.0915,6.24708 L38.0915,44.04036 L39.8563571,48.46926 C40.044,48.94064 40.1403571,49.4431 40.1403571,49.95074 L40.1403571,62.63656 L42.458,65.38714 C43.0564286,66.10198 43.3860714,67.00848 43.3860714,67.95124 L43.3860714,106.60958 C46.4492143,110.28738 47.8337143,114.13612 47.5040714,118.04702 C47.1642857,122.20656 44.9531429,125.2265 43.3860714,126.8841 L43.3860714,196.02674 C53.2804286,198.24378 60.3094286,205.26268 60.634,205.5942 C61.3237143,206.2935 61.7294286,207.24144 61.77,208.236 C61.8765,211.19378 62.0641429,214.70064 62.2162857,216.41004 C64.6150714,218.91716 70.0567143,225.69778 70.4167857,235.80396 C71.0050714,243.56878 69.1286429,250.00752 64.8483571,254.94924 C59.9848571,260.56436 53.1942143,262.74514 48.9747857,263.58948 L61.7598571,511.5509 C61.8714286,513.71614 60.2435,515.5654 58.1236429,515.67936 C58.0627857,515.67418 57.9968571,515.68454 57.9258571,515.68454 L57.9258571,515.68454 Z" id="Shape"></path>
                </g>
            </g>
        </g>
    </g>
</svg>