<?xml version="1.0" encoding="UTF-8" standalone="no"?>
<svg width="998px" height="436px" viewBox="0 0 998 436" version="1.1" xmlns="http://www.w3.org/2000/svg" xmlns:xlink="http://www.w3.org/1999/xlink" xmlns:sketch="http://www.bohemiancoding.com/sketch/ns">
    <!-- Generator: Sketch 3.5.1 (25234) - http://www.bohemiancoding.com/sketch -->
    <title>Welcome</title>
    <desc>Created with Sketch.</desc>
    <defs></defs>
    <g id="Page-1" stroke="none" stroke-width="1" fill="none" fill-rule="evenodd" sketch:type="MSPage">
        <g id="skyline" sketch:type="MSLayerGroup" fill="#4C5454">
            <g id="Desktop" sketch:type="MSShapeGroup">
                <g id="Welcome">
                    <g id="Desktop">
                        <g id="bigBuildings" transform="translate(817.000000, 272.000000)">
                            <g id="buildings-18">
                                <g id="Group">
                                    <g id="Shape">
                                        <path d="M129.716667,64.8 L174.966667,64.8 L174.966667,162 L129.716667,162 L129.716667,64.8 L129.716667,64.8 L129.716667,64.8 Z M135.75,156.6 L168.933333,156.6 L168.933333,70.2 L135.75,70.2 L135.75,156.6 L135.75,156.6 L135.75,156.6 Z"></path>
                                        <path d="M6.03333333,64.8 L51.2833333,64.8 L51.2833333,162 L6.03333333,162 L6.03333333,64.8 L6.03333333,64.8 L6.03333333,64.8 Z M12.0666667,156.6 L45.25,156.6 L45.25,70.2 L12.0666667,70.2 L12.0666667,156.6 L12.0666667,156.6 L12.0666667,156.6 Z"></path>
                                        <path d="M45.25,27 L135.75,27 L135.75,162 L45.25,162 L45.25,27 L45.25,27 L45.25,27 Z M51.2833333,156.6 L129.716667,156.6 L129.716667,32.4 L51.2833333,32.4 L51.2833333,156.6 L51.2833333,156.6 L51.2833333,156.6 Z"></path>
                                        <path d="M177.983333,162 L3.01666667,162 C1.35146667,162 0,160.7904 0,159.3 C0,157.8096 1.35146667,156.6 3.01666667,156.6 L177.983333,156.6 C179.648533,156.6 181,157.8096 181,159.3 C181,160.7904 179.648533,162 177.983333,162"></path>
                                        <path d="M63.35,13.5 L117.65,13.5 L117.65,32.4 L63.35,32.4 L63.35,13.5 L63.35,13.5 L63.35,13.5 Z M69.3833333,27 L111.616667,27 L111.616667,18.9 L69.3833333,18.9 L69.3833333,27 L69.3833333,27 L69.3833333,27 Z"></path>
                                        <path d="M90.5,18.9 C88.8348,18.9 87.4833333,17.6904 87.4833333,16.2 L87.4833333,2.7 C87.4833333,1.2096 88.8348,0 90.5,0 C92.1652,0 93.5166667,1.2096 93.5166667,2.7 L93.5166667,16.2 C93.5166667,17.6904 92.1652,18.9 90.5,18.9"></path>
                                        <path d="M36.2,78.3 L21.1166667,78.3 C19.4514667,78.3 18.1,77.0904 18.1,75.6 C18.1,74.1096 19.4514667,72.9 21.1166667,72.9 L36.2,72.9 C37.8652,72.9 39.2166667,74.1096 39.2166667,75.6 C39.2166667,77.0904 37.8652,78.3 36.2,78.3"></path>
                                        <path d="M36.2,89.1 L21.1166667,89.1 C19.4514667,89.1 18.1,87.8904 18.1,86.4 C18.1,84.9096 19.4514667,83.7 21.1166667,83.7 L36.2,83.7 C37.8652,83.7 39.2166667,84.9096 39.2166667,86.4 C39.2166667,87.8904 37.8652,89.1 36.2,89.1"></path>
                                        <path d="M36.2,99.9 L21.1166667,99.9 C19.4514667,99.9 18.1,98.6904 18.1,97.2 C18.1,95.7096 19.4514667,94.5 21.1166667,94.5 L36.2,94.5 C37.8652,94.5 39.2166667,95.7096 39.2166667,97.2 C39.2166667,98.6904 37.8652,99.9 36.2,99.9"></path>
                                        <path d="M36.2,110.7 L21.1166667,110.7 C19.4514667,110.7 18.1,109.4904 18.1,108 C18.1,106.5096 19.4514667,105.3 21.1166667,105.3 L36.2,105.3 C37.8652,105.3 39.2166667,106.5096 39.2166667,108 C39.2166667,109.4904 37.8652,110.7 36.2,110.7"></path>
                                        <path d="M36.2,121.5 L21.1166667,121.5 C19.4514667,121.5 18.1,120.2904 18.1,118.8 C18.1,117.3096 19.4514667,116.1 21.1166667,116.1 L36.2,116.1 C37.8652,116.1 39.2166667,117.3096 39.2166667,118.8 C39.2166667,120.2904 37.8652,121.5 36.2,121.5"></path>
                                        <path d="M36.2,132.3 L21.1166667,132.3 C19.4514667,132.3 18.1,131.0904 18.1,129.6 C18.1,128.1096 19.4514667,126.9 21.1166667,126.9 L36.2,126.9 C37.8652,126.9 39.2166667,128.1096 39.2166667,129.6 C39.2166667,131.0904 37.8652,132.3 36.2,132.3"></path>
                                        <path d="M36.2,143.1 L21.1166667,143.1 C19.4514667,143.1 18.1,141.8904 18.1,140.4 C18.1,138.9096 19.4514667,137.7 21.1166667,137.7 L36.2,137.7 C37.8652,137.7 39.2166667,138.9096 39.2166667,140.4 C39.2166667,141.8904 37.8652,143.1 36.2,143.1"></path>
                                        <path d="M36.2,153.9 L21.1166667,153.9 C19.4514667,153.9 18.1,152.6904 18.1,151.2 C18.1,149.7096 19.4514667,148.5 21.1166667,148.5 L36.2,148.5 C37.8652,148.5 39.2166667,149.7096 39.2166667,151.2 C39.2166667,152.6904 37.8652,153.9 36.2,153.9"></path>
                                        <path d="M144.8,151.2 C143.1348,151.2 141.783333,149.9904 141.783333,148.5 L141.783333,78.3 C141.783333,76.8096 143.1348,75.6 144.8,75.6 C146.4652,75.6 147.816667,76.8096 147.816667,78.3 L147.816667,148.5 C147.816667,149.9904 146.4652,151.2 144.8,151.2"></path>
                                        <path d="M159.883333,151.2 C158.218133,151.2 156.866667,149.9904 156.866667,148.5 L156.866667,78.3 C156.866667,76.8096 158.218133,75.6 159.883333,75.6 C161.548533,75.6 162.9,76.8096 162.9,78.3 L162.9,148.5 C162.9,149.9904 161.548533,151.2 159.883333,151.2"></path>
                                        <path d="M57.3166667,37.8 L84.4666667,37.8 L84.4666667,62.1 L57.3166667,62.1 L57.3166667,37.8 L57.3166667,37.8 L57.3166667,37.8 Z M63.35,56.7 L78.4333333,56.7 L78.4333333,43.2 L63.35,43.2 L63.35,56.7 L63.35,56.7 L63.35,56.7 Z"></path>
                                        <path d="M96.5333333,37.8 L123.683333,37.8 L123.683333,62.1 L96.5333333,62.1 L96.5333333,37.8 L96.5333333,37.8 L96.5333333,37.8 Z M102.566667,56.7 L117.65,56.7 L117.65,43.2 L102.566667,43.2 L102.566667,56.7 L102.566667,56.7 L102.566667,56.7 Z"></path>
                                        <path d="M57.3166667,67.5 L84.4666667,67.5 L84.4666667,91.8 L57.3166667,91.8 L57.3166667,67.5 L57.3166667,67.5 L57.3166667,67.5 Z M63.35,86.4 L78.4333333,86.4 L78.4333333,72.9 L63.35,72.9 L63.35,86.4 L63.35,86.4 L63.35,86.4 Z"></path>
                                        <path d="M96.5333333,67.5 L123.683333,67.5 L123.683333,91.8 L96.5333333,91.8 L96.5333333,67.5 L96.5333333,67.5 L96.5333333,67.5 Z M102.566667,86.4 L117.65,86.4 L117.65,72.9 L102.566667,72.9 L102.566667,86.4 L102.566667,86.4 L102.566667,86.4 Z"></path>
                                        <path d="M57.3166667,97.2 L84.4666667,97.2 L84.4666667,121.5 L57.3166667,121.5 L57.3166667,97.2 L57.3166667,97.2 L57.3166667,97.2 Z M63.35,116.1 L78.4333333,116.1 L78.4333333,102.6 L63.35,102.6 L63.35,116.1 L63.35,116.1 L63.35,116.1 Z"></path>
                                        <path d="M96.5333333,97.2 L123.683333,97.2 L123.683333,121.5 L96.5333333,121.5 L96.5333333,97.2 L96.5333333,97.2 L96.5333333,97.2 Z M102.566667,116.1 L117.65,116.1 L117.65,102.6 L102.566667,102.6 L102.566667,116.1 L102.566667,116.1 L102.566667,116.1 Z"></path>
                                        <path d="M57.3166667,126.9 L84.4666667,126.9 L84.4666667,151.2 L57.3166667,151.2 L57.3166667,126.9 L57.3166667,126.9 L57.3166667,126.9 Z M63.35,145.8 L78.4333333,145.8 L78.4333333,132.3 L63.35,132.3 L63.35,145.8 L63.35,145.8 L63.35,145.8 Z"></path>
                                        <path d="M96.5333333,126.9 L123.683333,126.9 L123.683333,151.2 L96.5333333,151.2 L96.5333333,126.9 L96.5333333,126.9 L96.5333333,126.9 Z M102.566667,145.8 L117.65,145.8 L117.65,132.3 L102.566667,132.3 L102.566667,145.8 L102.566667,145.8 L102.566667,145.8 Z"></path>
                                    </g>
                                </g>
                            </g>
                        </g>
                        <g id="cnTower" transform="translate(811.000000, 217.500000) scale(-1, 1) translate(-811.000000, -217.500000) translate(782.000000, 0.000000)">
                            <g id="Group">
                                <path d="M10.3861428,434.733025 C10.3322857,434.733025 10.2784286,434.724257 10.2245714,434.724257 C8.49285717,434.632196 7.15471428,433.071545 7.24585714,431.239095 L17.2632857,221.35779 C13.9945714,220.643222 8.845,218.837075 5.07085714,214.326091 C1.54528572,210.117593 -2.61457522e-14,204.576404 0.468142857,197.873494 C0.754,189.373205 5.00871428,183.634742 6.88957143,181.499806 C7.00971428,180.066287 7.15471428,177.072116 7.24585714,174.547017 C7.27485714,173.722853 7.58557143,172.946911 8.12414286,172.355091 C8.381,172.078908 13.8785714,166.143172 21.6381428,164.236196 L21.6381428,105.650396 C20.4118572,104.256332 18.6967143,101.722465 18.415,98.2460702 C18.1498572,94.9406457 19.2352857,91.6922113 21.6381428,88.5709086 L21.6381428,55.8147654 C21.6381428,55.0432074 21.895,54.2979525 22.3548572,53.7017486 L24.1777143,51.3607716 L24.1777143,40.585263 C24.1777143,40.1731809 24.2522857,39.7610988 24.3931428,39.3753198 L25.781,35.6095909 L25.781,3.59431868 C25.781,1.75748463 27.1854286,0.271358755 28.9212857,0.271358755 C30.6571428,0.271358755 32.0615714,1.75748463 32.0615714,3.59431868 L32.0615714,36.227714 C32.0615714,36.6397961 31.987,37.0518782 31.8461428,37.4376572 L30.4582857,41.20777 L30.4582857,52.5487955 C30.4582857,53.3159696 30.2055714,54.0656084 29.7415714,54.6618123 L27.9187143,57.0027893 L27.9187143,89.8071549 C27.9187143,90.6400868 27.6204286,91.4467156 27.086,92.0604549 C25.3584286,94.041956 24.5464286,95.9138609 24.6665714,97.6279471 C24.8322857,99.973308 26.7007143,101.590949 26.7172857,101.608485 C27.4588572,102.23976 27.9187143,103.212975 27.9187143,104.221261 L27.9187143,167.046246 C27.9187143,168.764716 26.6841428,170.198235 25.0684286,170.356054 C19.778,170.882116 15.2622857,174.520714 13.4684286,176.164658 C13.1618572,184.362462 12.9174286,184.59919 11.9231428,185.554869 C11.7242857,185.743375 6.97657143,190.407794 6.74042857,198.158444 C6.74042857,198.206667 6.73628572,198.254889 6.73214286,198.303111 C6.38414286,203.164804 7.395,207.057664 9.73985717,209.880865 C13.7832857,214.742557 20.6272857,215.176558 20.6935714,215.180942 C22.4211428,215.273003 23.7675714,216.838038 23.6805714,218.670489 L13.514,431.572268 C13.4352857,433.343344 12.0474286,434.733025 10.3861428,434.733025 L10.3861428,434.733025 L10.3861428,434.733025 Z" id="Shape"></path>
                                <path d="M47.3197143,434.733025 C45.6625714,434.733025 44.2747143,433.356496 44.1835714,431.572268 L33.582,218.674872 C33.5364286,217.789334 33.8347143,216.921332 34.394,216.263754 C34.9574286,215.61056 35.7487143,215.220397 36.5855714,215.180942 C36.6477143,215.176558 44.0592857,214.729405 48.2932857,209.635369 C50.6132857,206.842855 51.6075714,203.037672 51.2512857,198.320647 C51.2471428,198.268041 51.2471428,198.219818 51.2471428,198.162828 C50.9985714,190.434097 46.052,185.795981 45.8407143,185.603092 C44.805,184.638644 44.5481428,184.401916 44.2291428,176.208497 C42.3441428,174.547017 37.6212857,170.895268 32.016,170.360438 C30.3961428,170.207003 29.1574286,168.7691 29.1574286,167.05063 L29.1574286,104.225645 C29.1574286,103.169136 29.6297143,102.178386 30.4334286,101.551495 L30.4334286,101.551495 C30.4334286,101.551495 32.3888572,99.9250856 32.5504286,97.6104117 C32.6664286,95.9313963 31.8212857,94.0814107 30.0357143,92.1174449 C29.4722857,91.4949379 29.1615714,90.6707737 29.1615714,89.8159226 L29.1615714,57.0510117 L27.2682857,54.7231862 C26.7794286,54.1182146 26.5101428,53.3510405 26.5101428,52.5575632 L26.5101428,41.2340732 L25.0684286,37.4858796 C24.9151428,37.0913329 24.8364286,36.6617154 24.8364286,36.2320979 L24.8364286,3.59431868 C24.8364286,1.75748463 26.2408572,0.271358755 27.9767143,0.271358755 C29.7125714,0.271358755 31.117,1.75748463 31.117,3.59431868 L31.117,35.5789039 L32.5587143,39.3270975 C32.712,39.726028 32.7907143,40.1512617 32.7907143,40.5808792 L32.7907143,51.3169331 L34.684,53.6447586 C35.1728572,54.2497302 35.4421428,55.0169043 35.4421428,55.8147654 L35.4421428,88.5314539 C37.9444286,91.6439889 39.0754286,94.9011911 38.8061428,98.2109994 C38.5285714,101.731233 36.7222857,104.287018 35.4421428,105.689851 L35.4421428,164.20551 C43.5248572,166.081798 49.2668572,172.021918 49.532,172.302484 C50.0954286,172.894304 50.4268572,173.696549 50.46,174.538249 C50.547,177.041429 50.7002857,180.009296 50.8245714,181.455968 C52.7841428,183.577752 57.2294286,189.316215 57.5235714,197.86911 C58.0041428,204.440504 56.4712857,209.889633 52.9747143,214.071828 C49.0017143,218.823923 43.4544286,220.669525 40.0075714,221.384093 L50.4517143,431.234711 C50.5428572,433.067161 49.213,434.632196 47.4812857,434.728641 C47.4315714,434.724257 47.3777143,434.733025 47.3197143,434.733025 L47.3197143,434.733025 L47.3197143,434.733025 Z" id="Shape"></path>
                            </g>
                        </g>
                        <g id="smallBuildings" transform="translate(596.000000, 315.000000)">
                            <g id="Group">
                                <path d="M171.763441,44.14 C170.182796,44.14 169.129032,45.116 169.129032,46.58 L169.129032,104.408 C169.129032,105.872 170.182796,106.848 171.763441,106.848 C173.344086,106.848 174.397849,105.872 174.397849,104.408 L174.397849,46.58 C174.397849,45.36 173.344086,44.14 171.763441,44.14 L171.763441,44.14 L171.763441,44.14 Z" id="Shape"></path>
                                <path d="M180.193548,44.14 C178.612903,44.14 177.55914,45.116 177.55914,46.58 L177.55914,104.408 C177.55914,105.872 178.612903,106.848 180.193548,106.848 C181.774194,106.848 182.827957,105.872 182.827957,104.408 L182.827957,46.58 C182.827957,45.36 181.774194,44.14 180.193548,44.14 L180.193548,44.14 L180.193548,44.14 Z" id="Shape"></path>
                                <path d="M188.623656,44.14 C187.043011,44.14 185.989247,45.116 185.989247,46.58 L185.989247,104.408 C185.989247,105.872 187.043011,106.848 188.623656,106.848 C190.204301,106.848 191.258065,105.872 191.258065,104.408 L191.258065,46.58 C191.258065,45.36 190.204301,44.14 188.623656,44.14 L188.623656,44.14 L188.623656,44.14 Z" id="Shape"></path>
                                <rect id="Rectangle-path" x="71.1290323" y="44.628" width="5.2688172" height="4.636"></rect>
                                <rect id="Rectangle-path" x="71.1290323" y="56.584" width="5.2688172" height="4.636"></rect>
                                <rect id="Rectangle-path" x="71.1290323" y="68.54" width="5.2688172" height="4.636"></rect>
                                <rect id="Rectangle-path" x="60.0645161" y="44.628" width="5.2688172" height="4.636"></rect>
                                <rect id="Rectangle-path" x="60.0645161" y="56.584" width="5.2688172" height="4.636"></rect>
                                <rect id="Rectangle-path" x="60.0645161" y="68.54" width="5.2688172" height="4.636"></rect>
                                <rect id="Rectangle-path" x="49.2634409" y="44.628" width="5.2688172" height="4.636"></rect>
                                <rect id="Rectangle-path" x="49.2634409" y="56.584" width="5.2688172" height="4.636"></rect>
                                <rect id="Rectangle-path" x="49.2634409" y="68.54" width="5.2688172" height="4.636"></rect>
                                <rect id="Rectangle-path" x="71.1290323" y="80.252" width="5.2688172" height="4.636"></rect>
                                <rect id="Rectangle-path" x="71.1290323" y="92.208" width="5.2688172" height="4.636"></rect>
                                <rect id="Rectangle-path" x="71.1290323" y="104.164" width="5.2688172" height="4.636"></rect>
                                <rect id="Rectangle-path" x="60.0645161" y="80.252" width="5.2688172" height="4.636"></rect>
                                <rect id="Rectangle-path" x="60.0645161" y="92.208" width="5.2688172" height="4.636"></rect>
                                <rect id="Rectangle-path" x="60.0645161" y="104.164" width="5.2688172" height="4.636"></rect>
                                <rect id="Rectangle-path" x="49.2634409" y="80.252" width="5.2688172" height="4.636"></rect>
                                <rect id="Rectangle-path" x="49.2634409" y="92.208" width="5.2688172" height="4.636"></rect>
                                <rect id="Rectangle-path" x="49.2634409" y="104.164" width="5.2688172" height="4.636"></rect>
                                <path d="M240.258065,114.412 L229.72043,114.412 L229.72043,72.444 C229.72043,70.98 228.666667,70.004 227.086022,70.004 L201.268817,70.004 L201.268817,34.136 C201.268817,32.672 200.215054,31.696 198.634409,31.696 L161.752688,31.696 C160.172043,31.696 159.11828,32.672 159.11828,34.136 L159.11828,69.76 L156.22043,69.76 L156.22043,2.904 C156.22043,1.44 155.166667,0.464 153.586022,0.464 L90.0967742,0.464 C88.516129,0.464 87.4623656,1.44 87.4623656,2.904 L87.4623656,69.76 L84.5645161,69.76 L84.5645161,37.064 C84.5645161,35.6 83.5107527,34.624 81.9301075,34.624 L43.2043011,34.624 C41.6236559,34.624 40.5698925,35.6 40.5698925,37.064 L40.5698925,70.004 L14.7526882,70.004 C13.172043,70.004 12.1182796,70.98 12.1182796,72.444 L12.1182796,114.412 L3.16129032,114.412 C1.58064516,114.412 0.52688172,115.388 0.52688172,116.852 C0.52688172,118.316 1.58064516,119.292 3.16129032,119.292 L42.9408602,119.292 L81.6666667,119.292 L89.8333333,119.292 L153.322581,119.292 L239.994624,119.292 C241.575269,119.292 242.629032,118.316 242.629032,116.852 C242.629032,115.388 241.83871,114.412 240.258065,114.412 L240.258065,114.412 L240.258065,114.412 Z M201.268817,88.304 L213.387097,88.304 L213.387097,114.412 L201.268817,114.412 L201.268817,88.304 L201.268817,88.304 L201.268817,88.304 Z M164.387097,36.82 L196,36.82 L196,72.688 L196,85.864 L196,114.168 L164.387097,114.168 L164.387097,36.82 L164.387097,36.82 L164.387097,36.82 Z M28.7150538,88.304 L40.8333333,88.304 L40.8333333,114.412 L28.7150538,114.412 L28.7150538,88.304 L28.7150538,88.304 L28.7150538,88.304 Z M46.1021505,114.412 L46.1021505,85.864 L46.1021505,72.688 L46.1021505,39.748 L79.5591398,39.748 L79.5591398,114.656 L46.1021505,114.656 L46.1021505,114.412 L46.1021505,114.412 Z M92.9946237,114.412 L92.9946237,70.98 L110.908602,70.98 C112.489247,70.98 113.543011,70.004 113.543011,68.54 C113.543011,67.076 112.489247,66.1 110.908602,66.1 L92.9946237,66.1 L92.9946237,55.364 L125.924731,55.364 C127.505376,55.364 128.55914,54.388 128.55914,52.924 C128.55914,51.46 127.505376,50.484 125.924731,50.484 L92.9946237,50.484 L92.9946237,39.016 L134.354839,39.016 C135.935484,39.016 136.989247,38.04 136.989247,36.576 C136.989247,35.112 135.935484,34.136 134.354839,34.136 L92.9946237,34.136 L92.9946237,22.668 L144.365591,22.668 C145.946237,22.668 147,21.692 147,20.228 C147,18.764 145.946237,17.788 144.365591,17.788 L92.9946237,17.788 L92.9946237,5.344 L151.215054,5.344 L151.215054,114.412 L92.9946237,114.412 L92.9946237,114.412 L92.9946237,114.412 Z" id="Shape"></path>
                            </g>
                        </g>
                        <g id="smallBuildings" transform="translate(411.000000, 315.000000)">
                            <g id="Group">
                                <path d="M171.763441,44.14 C170.182796,44.14 169.129032,45.116 169.129032,46.58 L169.129032,104.408 C169.129032,105.872 170.182796,106.848 171.763441,106.848 C173.344086,106.848 174.397849,105.872 174.397849,104.408 L174.397849,46.58 C174.397849,45.36 173.344086,44.14 171.763441,44.14 L171.763441,44.14 L171.763441,44.14 Z" id="Shape"></path>
                                <path d="M180.193548,44.14 C178.612903,44.14 177.55914,45.116 177.55914,46.58 L177.55914,104.408 C177.55914,105.872 178.612903,106.848 180.193548,106.848 C181.774194,106.848 182.827957,105.872 182.827957,104.408 L182.827957,46.58 C182.827957,45.36 181.774194,44.14 180.193548,44.14 L180.193548,44.14 L180.193548,44.14 Z" id="Shape"></path>
                                <path d="M188.623656,44.14 C187.043011,44.14 185.989247,45.116 185.989247,46.58 L185.989247,104.408 C185.989247,105.872 187.043011,106.848 188.623656,106.848 C190.204301,106.848 191.258065,105.872 191.258065,104.408 L191.258065,46.58 C191.258065,45.36 190.204301,44.14 188.623656,44.14 L188.623656,44.14 L188.623656,44.14 Z" id="Shape"></path>
                                <rect id="Rectangle-path" x="71.1290323" y="44.628" width="5.2688172" height="4.636"></rect>
                                <rect id="Rectangle-path" x="71.1290323" y="56.584" width="5.2688172" height="4.636"></rect>
                                <rect id="Rectangle-path" x="71.1290323" y="68.54" width="5.2688172" height="4.636"></rect>
                                <rect id="Rectangle-path" x="60.0645161" y="44.628" width="5.2688172" height="4.636"></rect>
                                <rect id="Rectangle-path" x="60.0645161" y="56.584" width="5.2688172" height="4.636"></rect>
                                <rect id="Rectangle-path" x="60.0645161" y="68.54" width="5.2688172" height="4.636"></rect>
                                <rect id="Rectangle-path" x="49.2634409" y="44.628" width="5.2688172" height="4.636"></rect>
                                <rect id="Rectangle-path" x="49.2634409" y="56.584" width="5.2688172" height="4.636"></rect>
                                <rect id="Rectangle-path" x="49.2634409" y="68.54" width="5.2688172" height="4.636"></rect>
                                <rect id="Rectangle-path" x="71.1290323" y="80.252" width="5.2688172" height="4.636"></rect>
                                <rect id="Rectangle-path" x="71.1290323" y="92.208" width="5.2688172" height="4.636"></rect>
                                <rect id="Rectangle-path" x="71.1290323" y="104.164" width="5.2688172" height="4.636"></rect>
                                <rect id="Rectangle-path" x="60.0645161" y="80.252" width="5.2688172" height="4.636"></rect>
                                <rect id="Rectangle-path" x="60.0645161" y="92.208" width="5.2688172" height="4.636"></rect>
                                <rect id="Rectangle-path" x="60.0645161" y="104.164" width="5.2688172" height="4.636"></rect>
                                <rect id="Rectangle-path" x="49.2634409" y="80.252" width="5.2688172" height="4.636"></rect>
                                <rect id="Rectangle-path" x="49.2634409" y="92.208" width="5.2688172" height="4.636"></rect>
                                <rect id="Rectangle-path" x="49.2634409" y="104.164" width="5.2688172" height="4.636"></rect>
                                <path d="M240.258065,114.412 L229.72043,114.412 L229.72043,72.444 C229.72043,70.98 228.666667,70.004 227.086022,70.004 L201.268817,70.004 L201.268817,34.136 C201.268817,32.672 200.215054,31.696 198.634409,31.696 L161.752688,31.696 C160.172043,31.696 159.11828,32.672 159.11828,34.136 L159.11828,69.76 L156.22043,69.76 L156.22043,2.904 C156.22043,1.44 155.166667,0.464 153.586022,0.464 L90.0967742,0.464 C88.516129,0.464 87.4623656,1.44 87.4623656,2.904 L87.4623656,69.76 L84.5645161,69.76 L84.5645161,37.064 C84.5645161,35.6 83.5107527,34.624 81.9301075,34.624 L43.2043011,34.624 C41.6236559,34.624 40.5698925,35.6 40.5698925,37.064 L40.5698925,70.004 L14.7526882,70.004 C13.172043,70.004 12.1182796,70.98 12.1182796,72.444 L12.1182796,114.412 L3.16129032,114.412 C1.58064516,114.412 0.52688172,115.388 0.52688172,116.852 C0.52688172,118.316 1.58064516,119.292 3.16129032,119.292 L42.9408602,119.292 L81.6666667,119.292 L89.8333333,119.292 L153.322581,119.292 L239.994624,119.292 C241.575269,119.292 242.629032,118.316 242.629032,116.852 C242.629032,115.388 241.83871,114.412 240.258065,114.412 L240.258065,114.412 L240.258065,114.412 Z M201.268817,88.304 L213.387097,88.304 L213.387097,114.412 L201.268817,114.412 L201.268817,88.304 L201.268817,88.304 L201.268817,88.304 Z M164.387097,36.82 L196,36.82 L196,72.688 L196,85.864 L196,114.168 L164.387097,114.168 L164.387097,36.82 L164.387097,36.82 L164.387097,36.82 Z M28.7150538,88.304 L40.8333333,88.304 L40.8333333,114.412 L28.7150538,114.412 L28.7150538,88.304 L28.7150538,88.304 L28.7150538,88.304 Z M46.1021505,114.412 L46.1021505,85.864 L46.1021505,72.688 L46.1021505,39.748 L79.5591398,39.748 L79.5591398,114.656 L46.1021505,114.656 L46.1021505,114.412 L46.1021505,114.412 Z M92.9946237,114.412 L92.9946237,70.98 L110.908602,70.98 C112.489247,70.98 113.543011,70.004 113.543011,68.54 C113.543011,67.076 112.489247,66.1 110.908602,66.1 L92.9946237,66.1 L92.9946237,55.364 L125.924731,55.364 C127.505376,55.364 128.55914,54.388 128.55914,52.924 C128.55914,51.46 127.505376,50.484 125.924731,50.484 L92.9946237,50.484 L92.9946237,39.016 L134.354839,39.016 C135.935484,39.016 136.989247,38.04 136.989247,36.576 C136.989247,35.112 135.935484,34.136 134.354839,34.136 L92.9946237,34.136 L92.9946237,22.668 L144.365591,22.668 C145.946237,22.668 147,21.692 147,20.228 C147,18.764 145.946237,17.788 144.365591,17.788 L92.9946237,17.788 L92.9946237,5.344 L151.215054,5.344 L151.215054,114.412 L92.9946237,114.412 L92.9946237,114.412 L92.9946237,114.412 Z" id="Shape"></path>
                            </g>
                        </g>
                        <g id="smallBuildings" transform="translate(211.000000, 315.000000)">
                            <g id="Group">
                                <path d="M171.763441,44.14 C170.182796,44.14 169.129032,45.116 169.129032,46.58 L169.129032,104.408 C169.129032,105.872 170.182796,106.848 171.763441,106.848 C173.344086,106.848 174.397849,105.872 174.397849,104.408 L174.397849,46.58 C174.397849,45.36 173.344086,44.14 171.763441,44.14 L171.763441,44.14 L171.763441,44.14 Z" id="Shape"></path>
                                <path d="M180.193548,44.14 C178.612903,44.14 177.55914,45.116 177.55914,46.58 L177.55914,104.408 C177.55914,105.872 178.612903,106.848 180.193548,106.848 C181.774194,106.848 182.827957,105.872 182.827957,104.408 L182.827957,46.58 C182.827957,45.36 181.774194,44.14 180.193548,44.14 L180.193548,44.14 L180.193548,44.14 Z" id="Shape"></path>
                                <path d="M188.623656,44.14 C187.043011,44.14 185.989247,45.116 185.989247,46.58 L185.989247,104.408 C185.989247,105.872 187.043011,106.848 188.623656,106.848 C190.204301,106.848 191.258065,105.872 191.258065,104.408 L191.258065,46.58 C191.258065,45.36 190.204301,44.14 188.623656,44.14 L188.623656,44.14 L188.623656,44.14 Z" id="Shape"></path>
                                <rect id="Rectangle-path" x="71.1290323" y="44.628" width="5.2688172" height="4.636"></rect>
                                <rect id="Rectangle-path" x="71.1290323" y="56.584" width="5.2688172" height="4.636"></rect>
                                <rect id="Rectangle-path" x="71.1290323" y="68.54" width="5.2688172" height="4.636"></rect>
                                <rect id="Rectangle-path" x="60.0645161" y="44.628" width="5.2688172" height="4.636"></rect>
                                <rect id="Rectangle-path" x="60.0645161" y="56.584" width="5.2688172" height="4.636"></rect>
                                <rect id="Rectangle-path" x="60.0645161" y="68.54" width="5.2688172" height="4.636"></rect>
                                <rect id="Rectangle-path" x="49.2634409" y="44.628" width="5.2688172" height="4.636"></rect>
                                <rect id="Rectangle-path" x="49.2634409" y="56.584" width="5.2688172" height="4.636"></rect>
                                <rect id="Rectangle-path" x="49.2634409" y="68.54" width="5.2688172" height="4.636"></rect>
                                <rect id="Rectangle-path" x="71.1290323" y="80.252" width="5.2688172" height="4.636"></rect>
                                <rect id="Rectangle-path" x="71.1290323" y="92.208" width="5.2688172" height="4.636"></rect>
                                <rect id="Rectangle-path" x="71.1290323" y="104.164" width="5.2688172" height="4.636"></rect>
                                <rect id="Rectangle-path" x="60.0645161" y="80.252" width="5.2688172" height="4.636"></rect>
                                <rect id="Rectangle-path" x="60.0645161" y="92.208" width="5.2688172" height="4.636"></rect>
                                <rect id="Rectangle-path" x="60.0645161" y="104.164" width="5.2688172" height="4.636"></rect>
                                <rect id="Rectangle-path" x="49.2634409" y="80.252" width="5.2688172" height="4.636"></rect>
                                <rect id="Rectangle-path" x="49.2634409" y="92.208" width="5.2688172" height="4.636"></rect>
                                <rect id="Rectangle-path" x="49.2634409" y="104.164" width="5.2688172" height="4.636"></rect>
                                <path d="M240.258065,114.412 L229.72043,114.412 L229.72043,72.444 C229.72043,70.98 228.666667,70.004 227.086022,70.004 L201.268817,70.004 L201.268817,34.136 C201.268817,32.672 200.215054,31.696 198.634409,31.696 L161.752688,31.696 C160.172043,31.696 159.11828,32.672 159.11828,34.136 L159.11828,69.76 L156.22043,69.76 L156.22043,2.904 C156.22043,1.44 155.166667,0.464 153.586022,0.464 L90.0967742,0.464 C88.516129,0.464 87.4623656,1.44 87.4623656,2.904 L87.4623656,69.76 L84.5645161,69.76 L84.5645161,37.064 C84.5645161,35.6 83.5107527,34.624 81.9301075,34.624 L43.2043011,34.624 C41.6236559,34.624 40.5698925,35.6 40.5698925,37.064 L40.5698925,70.004 L14.7526882,70.004 C13.172043,70.004 12.1182796,70.98 12.1182796,72.444 L12.1182796,114.412 L3.16129032,114.412 C1.58064516,114.412 0.52688172,115.388 0.52688172,116.852 C0.52688172,118.316 1.58064516,119.292 3.16129032,119.292 L42.9408602,119.292 L81.6666667,119.292 L89.8333333,119.292 L153.322581,119.292 L239.994624,119.292 C241.575269,119.292 242.629032,118.316 242.629032,116.852 C242.629032,115.388 241.83871,114.412 240.258065,114.412 L240.258065,114.412 L240.258065,114.412 Z M201.268817,88.304 L213.387097,88.304 L213.387097,114.412 L201.268817,114.412 L201.268817,88.304 L201.268817,88.304 L201.268817,88.304 Z M164.387097,36.82 L196,36.82 L196,72.688 L196,85.864 L196,114.168 L164.387097,114.168 L164.387097,36.82 L164.387097,36.82 L164.387097,36.82 Z M28.7150538,88.304 L40.8333333,88.304 L40.8333333,114.412 L28.7150538,114.412 L28.7150538,88.304 L28.7150538,88.304 L28.7150538,88.304 Z M46.1021505,114.412 L46.1021505,85.864 L46.1021505,72.688 L46.1021505,39.748 L79.5591398,39.748 L79.5591398,114.656 L46.1021505,114.656 L46.1021505,114.412 L46.1021505,114.412 Z M92.9946237,114.412 L92.9946237,70.98 L110.908602,70.98 C112.489247,70.98 113.543011,70.004 113.543011,68.54 C113.543011,67.076 112.489247,66.1 110.908602,66.1 L92.9946237,66.1 L92.9946237,55.364 L125.924731,55.364 C127.505376,55.364 128.55914,54.388 128.55914,52.924 C128.55914,51.46 127.505376,50.484 125.924731,50.484 L92.9946237,50.484 L92.9946237,39.016 L134.354839,39.016 C135.935484,39.016 136.989247,38.04 136.989247,36.576 C136.989247,35.112 135.935484,34.136 134.354839,34.136 L92.9946237,34.136 L92.9946237,22.668 L144.365591,22.668 C145.946237,22.668 147,21.692 147,20.228 C147,18.764 145.946237,17.788 144.365591,17.788 L92.9946237,17.788 L92.9946237,5.344 L151.215054,5.344 L151.215054,114.412 L92.9946237,114.412 L92.9946237,114.412 L92.9946237,114.412 Z" id="Shape"></path>
                            </g>
                        </g>
                        <g id="smallBuildings" transform="translate(0.000000, 316.000000)">
                            <g id="Group">
                                <path d="M171.763441,44.14 C170.182796,44.14 169.129032,45.116 169.129032,46.58 L169.129032,104.408 C169.129032,105.872 170.182796,106.848 171.763441,106.848 C173.344086,106.848 174.397849,105.872 174.397849,104.408 L174.397849,46.58 C174.397849,45.36 173.344086,44.14 171.763441,44.14 L171.763441,44.14 L171.763441,44.14 Z" id="Shape"></path>
                                <path d="M180.193548,44.14 C178.612903,44.14 177.55914,45.116 177.55914,46.58 L177.55914,104.408 C177.55914,105.872 178.612903,106.848 180.193548,106.848 C181.774194,106.848 182.827957,105.872 182.827957,104.408 L182.827957,46.58 C182.827957,45.36 181.774194,44.14 180.193548,44.14 L180.193548,44.14 L180.193548,44.14 Z" id="Shape"></path>
                                <path d="M188.623656,44.14 C187.043011,44.14 185.989247,45.116 185.989247,46.58 L185.989247,104.408 C185.989247,105.872 187.043011,106.848 188.623656,106.848 C190.204301,106.848 191.258065,105.872 191.258065,104.408 L191.258065,46.58 C191.258065,45.36 190.204301,44.14 188.623656,44.14 L188.623656,44.14 L188.623656,44.14 Z" id="Shape"></path>
                                <rect id="Rectangle-path" x="71.1290323" y="44.628" width="5.2688172" height="4.636"></rect>
                                <rect id="Rectangle-path" x="71.1290323" y="56.584" width="5.2688172" height="4.636"></rect>
                                <rect id="Rectangle-path" x="71.1290323" y="68.54" width="5.2688172" height="4.636"></rect>
                                <rect id="Rectangle-path" x="60.0645161" y="44.628" width="5.2688172" height="4.636"></rect>
                                <rect id="Rectangle-path" x="60.0645161" y="56.584" width="5.2688172" height="4.636"></rect>
                                <rect id="Rectangle-path" x="60.0645161" y="68.54" width="5.2688172" height="4.636"></rect>
                                <rect id="Rectangle-path" x="49.2634409" y="44.628" width="5.2688172" height="4.636"></rect>
                                <rect id="Rectangle-path" x="49.2634409" y="56.584" width="5.2688172" height="4.636"></rect>
                                <rect id="Rectangle-path" x="49.2634409" y="68.54" width="5.2688172" height="4.636"></rect>
                                <rect id="Rectangle-path" x="71.1290323" y="80.252" width="5.2688172" height="4.636"></rect>
                                <rect id="Rectangle-path" x="71.1290323" y="92.208" width="5.2688172" height="4.636"></rect>
                                <rect id="Rectangle-path" x="71.1290323" y="104.164" width="5.2688172" height="4.636"></rect>
                                <rect id="Rectangle-path" x="60.0645161" y="80.252" width="5.2688172" height="4.636"></rect>
                                <rect id="Rectangle-path" x="60.0645161" y="92.208" width="5.2688172" height="4.636"></rect>
                                <rect id="Rectangle-path" x="60.0645161" y="104.164" width="5.2688172" height="4.636"></rect>
                                <rect id="Rectangle-path" x="49.2634409" y="80.252" width="5.2688172" height="4.636"></rect>
                                <rect id="Rectangle-path" x="49.2634409" y="92.208" width="5.2688172" height="4.636"></rect>
                                <rect id="Rectangle-path" x="49.2634409" y="104.164" width="5.2688172" height="4.636"></rect>
                                <path d="M240.258065,114.412 L229.72043,114.412 L229.72043,72.444 C229.72043,70.98 228.666667,70.004 227.086022,70.004 L201.268817,70.004 L201.268817,34.136 C201.268817,32.672 200.215054,31.696 198.634409,31.696 L161.752688,31.696 C160.172043,31.696 159.11828,32.672 159.11828,34.136 L159.11828,69.76 L156.22043,69.76 L156.22043,2.904 C156.22043,1.44 155.166667,0.464 153.586022,0.464 L90.0967742,0.464 C88.516129,0.464 87.4623656,1.44 87.4623656,2.904 L87.4623656,69.76 L84.5645161,69.76 L84.5645161,37.064 C84.5645161,35.6 83.5107527,34.624 81.9301075,34.624 L43.2043011,34.624 C41.6236559,34.624 40.5698925,35.6 40.5698925,37.064 L40.5698925,70.004 L14.7526882,70.004 C13.172043,70.004 12.1182796,70.98 12.1182796,72.444 L12.1182796,114.412 L3.16129032,114.412 C1.58064516,114.412 0.52688172,115.388 0.52688172,116.852 C0.52688172,118.316 1.58064516,119.292 3.16129032,119.292 L42.9408602,119.292 L81.6666667,119.292 L89.8333333,119.292 L153.322581,119.292 L239.994624,119.292 C241.575269,119.292 242.629032,118.316 242.629032,116.852 C242.629032,115.388 241.83871,114.412 240.258065,114.412 L240.258065,114.412 L240.258065,114.412 Z M201.268817,88.304 L213.387097,88.304 L213.387097,114.412 L201.268817,114.412 L201.268817,88.304 L201.268817,88.304 L201.268817,88.304 Z M164.387097,36.82 L196,36.82 L196,72.688 L196,85.864 L196,114.168 L164.387097,114.168 L164.387097,36.82 L164.387097,36.82 L164.387097,36.82 Z M28.7150538,88.304 L40.8333333,88.304 L40.8333333,114.412 L28.7150538,114.412 L28.7150538,88.304 L28.7150538,88.304 L28.7150538,88.304 Z M46.1021505,114.412 L46.1021505,85.864 L46.1021505,72.688 L46.1021505,39.748 L79.5591398,39.748 L79.5591398,114.656 L46.1021505,114.656 L46.1021505,114.412 L46.1021505,114.412 Z M92.9946237,114.412 L92.9946237,70.98 L110.908602,70.98 C112.489247,70.98 113.543011,70.004 113.543011,68.54 C113.543011,67.076 112.489247,66.1 110.908602,66.1 L92.9946237,66.1 L92.9946237,55.364 L125.924731,55.364 C127.505376,55.364 128.55914,54.388 128.55914,52.924 C128.55914,51.46 127.505376,50.484 125.924731,50.484 L92.9946237,50.484 L92.9946237,39.016 L134.354839,39.016 C135.935484,39.016 136.989247,38.04 136.989247,36.576 C136.989247,35.112 135.935484,34.136 134.354839,34.136 L92.9946237,34.136 L92.9946237,22.668 L144.365591,22.668 C145.946237,22.668 147,21.692 147,20.228 C147,18.764 145.946237,17.788 144.365591,17.788 L92.9946237,17.788 L92.9946237,5.344 L151.215054,5.344 L151.215054,114.412 L92.9946237,114.412 L92.9946237,114.412 L92.9946237,114.412 Z" id="Shape"></path>
                            </g>
                        </g>
                    </g>
                </g>
            </g>
        </g>
    </g>
</svg>