<?xml version="1.0" encoding="UTF-8" standalone="no"?>
<svg width="225px" height="120px" viewBox="0 0 225 120" version="1.1" xmlns="http://www.w3.org/2000/svg" xmlns:xlink="http://www.w3.org/1999/xlink" xmlns:sketch="http://www.bohemiancoding.com/sketch/ns">
    <!-- Generator: Sketch 3.5.1 (25234) - http://www.bohemiancoding.com/sketch -->
    <title>smallBuildings</title>
    <desc>Created with Sketch.</desc>
    <defs></defs>
    <g id="Welcome" stroke="none" stroke-width="1" fill="none" fill-rule="evenodd" sketch:type="MSPage">
        <g id="Desktop" sketch:type="MSArtboardGroup" transform="translate(0.000000, -465.000000)" fill="#000000">
            <g id="smallBuildings" sketch:type="MSLayerGroup" transform="translate(-18.000000, 464.000000)">
                <g id="Group" sketch:type="MSShapeGroup">
                    <path d="M171.763441,45.14 C170.182796,45.14 169.129032,46.116 169.129032,47.58 L169.129032,105.408 C169.129032,106.872 170.182796,107.848 171.763441,107.848 C173.344086,107.848 174.397849,106.872 174.397849,105.408 L174.397849,47.58 C174.397849,46.36 173.344086,45.14 171.763441,45.14 L171.763441,45.14 Z" id="Shape"></path>
                    <path d="M180.193548,45.14 C178.612903,45.14 177.55914,46.116 177.55914,47.58 L177.55914,105.408 C177.55914,106.872 178.612903,107.848 180.193548,107.848 C181.774194,107.848 182.827957,106.872 182.827957,105.408 L182.827957,47.58 C182.827957,46.36 181.774194,45.14 180.193548,45.14 L180.193548,45.14 Z" id="Shape"></path>
                    <path d="M188.623656,45.14 C187.043011,45.14 185.989247,46.116 185.989247,47.58 L185.989247,105.408 C185.989247,106.872 187.043011,107.848 188.623656,107.848 C190.204301,107.848 191.258065,106.872 191.258065,105.408 L191.258065,47.58 C191.258065,46.36 190.204301,45.14 188.623656,45.14 L188.623656,45.14 Z" id="Shape"></path>
                    <rect id="Rectangle-path" x="71.1290323" y="45.628" width="5.2688172" height="4.636"></rect>
                    <rect id="Rectangle-path" x="71.1290323" y="57.584" width="5.2688172" height="4.636"></rect>
                    <rect id="Rectangle-path" x="71.1290323" y="69.54" width="5.2688172" height="4.636"></rect>
                    <rect id="Rectangle-path" x="60.0645161" y="45.628" width="5.2688172" height="4.636"></rect>
                    <rect id="Rectangle-path" x="60.0645161" y="57.584" width="5.2688172" height="4.636"></rect>
                    <rect id="Rectangle-path" x="60.0645161" y="69.54" width="5.2688172" height="4.636"></rect>
                    <rect id="Rectangle-path" x="49.2634409" y="45.628" width="5.2688172" height="4.636"></rect>
                    <rect id="Rectangle-path" x="49.2634409" y="57.584" width="5.2688172" height="4.636"></rect>
                    <rect id="Rectangle-path" x="49.2634409" y="69.54" width="5.2688172" height="4.636"></rect>
                    <rect id="Rectangle-path" x="71.1290323" y="81.252" width="5.2688172" height="4.636"></rect>
                    <rect id="Rectangle-path" x="71.1290323" y="93.208" width="5.2688172" height="4.636"></rect>
                    <rect id="Rectangle-path" x="71.1290323" y="105.164" width="5.2688172" height="4.636"></rect>
                    <rect id="Rectangle-path" x="60.0645161" y="81.252" width="5.2688172" height="4.636"></rect>
                    <rect id="Rectangle-path" x="60.0645161" y="93.208" width="5.2688172" height="4.636"></rect>
                    <rect id="Rectangle-path" x="60.0645161" y="105.164" width="5.2688172" height="4.636"></rect>
                    <rect id="Rectangle-path" x="49.2634409" y="81.252" width="5.2688172" height="4.636"></rect>
                    <rect id="Rectangle-path" x="49.2634409" y="93.208" width="5.2688172" height="4.636"></rect>
                    <rect id="Rectangle-path" x="49.2634409" y="105.164" width="5.2688172" height="4.636"></rect>
                    <path d="M240.258065,115.412 L229.72043,115.412 L229.72043,73.444 C229.72043,71.98 228.666667,71.004 227.086022,71.004 L201.268817,71.004 L201.268817,35.136 C201.268817,33.672 200.215054,32.696 198.634409,32.696 L161.752688,32.696 C160.172043,32.696 159.11828,33.672 159.11828,35.136 L159.11828,70.76 L156.22043,70.76 L156.22043,3.904 C156.22043,2.44 155.166667,1.464 153.586022,1.464 L90.0967742,1.464 C88.516129,1.464 87.4623656,2.44 87.4623656,3.904 L87.4623656,70.76 L84.5645161,70.76 L84.5645161,38.064 C84.5645161,36.6 83.5107527,35.624 81.9301075,35.624 L43.2043011,35.624 C41.6236559,35.624 40.5698925,36.6 40.5698925,38.064 L40.5698925,71.004 L14.7526882,71.004 C13.172043,71.004 12.1182796,71.98 12.1182796,73.444 L12.1182796,115.412 L3.16129032,115.412 C1.58064516,115.412 0.52688172,116.388 0.52688172,117.852 C0.52688172,119.316 1.58064516,120.292 3.16129032,120.292 L42.9408602,120.292 L81.6666667,120.292 L89.8333333,120.292 L153.322581,120.292 L239.994624,120.292 C241.575269,120.292 242.629032,119.316 242.629032,117.852 C242.629032,116.388 241.83871,115.412 240.258065,115.412 L240.258065,115.412 Z M201.268817,89.304 L213.387097,89.304 L213.387097,115.412 L201.268817,115.412 L201.268817,89.304 L201.268817,89.304 Z M164.387097,37.82 L196,37.82 L196,73.688 L196,86.864 L196,115.168 L164.387097,115.168 L164.387097,37.82 L164.387097,37.82 Z M28.7150538,89.304 L40.8333333,89.304 L40.8333333,115.412 L28.7150538,115.412 L28.7150538,89.304 L28.7150538,89.304 Z M46.1021505,115.412 L46.1021505,86.864 L46.1021505,73.688 L46.1021505,40.748 L79.5591398,40.748 L79.5591398,115.656 L46.1021505,115.656 L46.1021505,115.412 Z M92.9946237,115.412 L92.9946237,71.98 L110.908602,71.98 C112.489247,71.98 113.543011,71.004 113.543011,69.54 C113.543011,68.076 112.489247,67.1 110.908602,67.1 L92.9946237,67.1 L92.9946237,56.364 L125.924731,56.364 C127.505376,56.364 128.55914,55.388 128.55914,53.924 C128.55914,52.46 127.505376,51.484 125.924731,51.484 L92.9946237,51.484 L92.9946237,40.016 L134.354839,40.016 C135.935484,40.016 136.989247,39.04 136.989247,37.576 C136.989247,36.112 135.935484,35.136 134.354839,35.136 L92.9946237,35.136 L92.9946237,23.668 L144.365591,23.668 C145.946237,23.668 147,22.692 147,21.228 C147,19.764 145.946237,18.788 144.365591,18.788 L92.9946237,18.788 L92.9946237,6.344 L151.215054,6.344 L151.215054,115.412 L92.9946237,115.412 L92.9946237,115.412 Z" id="Shape"></path>
                </g>
            </g>
        </g>
    </g>
</svg>