<svg xmlns="http://www.w3.org/2000/svg" xmlns:xlink="http://www.w3.org/1999/xlink" version="1.1" x="0px" y="0px" viewBox="0 0 59.96 55.7" enable-background="new 0 0 59.96 44.56" xml:space="preserve"><g><path fill="#000000" d="M34.35,12.1c-0.75-0.46-1.55-0.78-2.38-0.98C32.18,6.06,36.35,2,41.46,2c5.09,0,9.25,4.03,9.48,9.07   c-3.93,0.5-6.98,3.86-6.98,7.93c0,0.55,0.45,1,1,1s1-0.45,1-1c0-3.31,2.69-6,6-6s6,2.69,6,6c0,0.55,0.45,1,1,1s1-0.45,1-1   c0-4.08-3.07-7.45-7.02-7.93C52.7,4.93,47.65,0,41.46,0C35.31,0,30.3,4.84,29.99,10.91c-0.56,0.01-1.12,0.08-1.68,0.21   c-2.08,0.49-3.85,1.76-4.97,3.58c-0.1,0.16-0.18,0.32-0.26,0.48c-2.88-0.58-5.84,0.43-7.75,2.74c-1.29,1.56-1.87,3.48-1.81,5.36   c-4.63-0.84-9.34,1.22-11.85,5.34c-1.6,2.62-2.07,5.71-1.34,8.7c0.73,2.98,2.57,5.51,5.2,7.1c0.16,0.1,0.34,0.15,0.52,0.15   c0.34,0,0.67-0.17,0.86-0.48c0.29-0.47,0.14-1.09-0.33-1.37c-2.17-1.32-3.69-3.4-4.3-5.87s-0.21-5.02,1.11-7.19   c2.2-3.62,6.45-5.32,10.5-4.26c0.45,1.43,1.3,2.76,2.54,3.78c0.19,0.15,0.41,0.23,0.64,0.23c0.29,0,0.57-0.12,0.77-0.36   c0.35-0.43,0.29-1.06-0.14-1.41c-1.02-0.84-1.68-1.94-1.99-3.13c0-0.01-0.01-0.03-0.01-0.04c-0.45-1.78-0.08-3.75,1.18-5.28   c1.35-1.65,3.43-2.42,5.49-2.12c-0.28,1.19-0.3,2.45-0.01,3.68c0.11,0.46,0.52,0.77,0.97,0.77c0.08,0,0.15-0.01,0.23-0.03   c0.54-0.13,0.87-0.67,0.74-1.2c-0.37-1.56-0.1-3.17,0.74-4.53c0.84-1.36,2.17-2.32,3.73-2.68c1.56-0.37,3.17-0.11,4.53,0.74   c1.36,0.84,2.32,2.17,2.68,3.73c0.13,0.54,0.66,0.87,1.2,0.74c0.54-0.13,0.87-0.67,0.74-1.2C37.44,14.99,36.17,13.23,34.35,12.1z"/><path fill="#000000" d="M54.9,36.08C54.44,32.1,51.06,29,46.96,29c-4.41,0-8,3.59-8,8c0,0.55,0.45,1,1,1s1-0.45,1-1   c0-3.31,2.69-6,6-6c3,0,5.49,2.22,5.93,5.1c-2.8,0.51-4.93,2.96-4.93,5.9c0,0.55,0.45,1,1,1s1-0.45,1-1c0-2.21,1.79-4,4-4   s4,1.79,4,4c0,0.55,0.45,1,1,1s1-0.45,1-1C59.96,39.01,57.76,36.54,54.9,36.08z"/></g><text x="0" y="59.56" fill="#000000" font-size="5px" font-weight="bold" font-family="'Helvetica Neue', Helvetica, Arial-Unicode, Arial, Sans-serif">Created by Oliviu Stoian</text><text x="0" y="64.56" fill="#000000" font-size="5px" font-weight="bold" font-family="'Helvetica Neue', Helvetica, Arial-Unicode, Arial, Sans-serif">from the Noun Project</text></svg>