<svg xmlns="http://www.w3.org/2000/svg" xmlns:xlink="http://www.w3.org/1999/xlink" version="1.1" x="0px" y="0px" viewBox="0 0 100 125" enable-background="new 0 0 100 100" xml:space="preserve"><g><path fill="#000000" d="M46.312,44.793c-0.558-0.953-1.781-1.274-2.736-0.717l-4.638,2.711l0-5.374c0-1.104-0.896-2-2-2   s-2,0.896-2,2l0,5.375l-4.64-2.712c-0.955-0.559-2.179-0.236-2.736,0.717c-0.558,0.954-0.236,2.178,0.717,2.736l4.695,2.745   l-4.694,2.744c-0.954,0.558-1.275,1.782-0.717,2.736c0.372,0.636,1.041,0.99,1.729,0.99c0.343,0,0.69-0.088,1.007-0.273   l4.639-2.712l0,5.375c0,1.104,0.896,2,2,2s2-0.896,2-2l0-5.374l4.638,2.711c0.317,0.186,0.665,0.273,1.007,0.273   c0.688,0,1.356-0.354,1.729-0.99c0.558-0.954,0.236-2.179-0.717-2.736L40.9,50.273l4.695-2.745   C46.549,46.971,46.87,45.747,46.312,44.793z"/><path fill="#000000" d="M71.721,38.165l-4.694-2.745l4.694-2.744c0.953-0.558,1.274-1.782,0.717-2.736   c-0.557-0.953-1.782-1.273-2.736-0.717l-4.637,2.711V26.56c0-1.104-0.896-2-2-2s-2,0.896-2,2v5.375l-4.64-2.712   c-0.955-0.558-2.18-0.237-2.736,0.717c-0.558,0.954-0.236,2.178,0.717,2.736L59.1,35.42l-4.694,2.745   c-0.953,0.558-1.274,1.782-0.717,2.736c0.372,0.636,1.041,0.991,1.729,0.991c0.343,0,0.69-0.088,1.008-0.274l4.639-2.712v5.375   c0,1.104,0.896,2,2,2s2-0.896,2-2v-5.374l4.638,2.711c0.317,0.186,0.665,0.274,1.008,0.274c0.688,0,1.356-0.355,1.729-0.991   C72.995,39.947,72.674,38.722,71.721,38.165z"/><path fill="#000000" d="M72.438,59.099c-0.557-0.952-1.782-1.273-2.736-0.717l-4.637,2.711v-5.374c0-1.104-0.896-2-2-2   s-2,0.896-2,2v5.375l-4.64-2.712c-0.955-0.559-2.18-0.236-2.736,0.717c-0.558,0.954-0.236,2.179,0.717,2.736L59.1,64.58   l-4.694,2.744c-0.953,0.558-1.274,1.782-0.717,2.736c0.372,0.636,1.041,0.99,1.729,0.99c0.343,0,0.69-0.088,1.008-0.273   l4.639-2.712v5.375c0,1.104,0.896,2,2,2s2-0.896,2-2v-5.374l4.638,2.711c0.317,0.186,0.665,0.273,1.008,0.273   c0.688,0,1.356-0.354,1.729-0.99c0.558-0.954,0.236-2.179-0.717-2.736l-4.694-2.744l4.694-2.745   C72.674,61.277,72.995,60.053,72.438,59.099z"/></g><text x="0" y="115" fill="#000000" font-size="5px" font-weight="bold" font-family="'Helvetica Neue', Helvetica, Arial-Unicode, Arial, Sans-serif">Created by Ema Dimitrova</text><text x="0" y="120" fill="#000000" font-size="5px" font-weight="bold" font-family="'Helvetica Neue', Helvetica, Arial-Unicode, Arial, Sans-serif">from the Noun Project</text></svg>