<svg xmlns="http://www.w3.org/2000/svg" xmlns:xlink="http://www.w3.org/1999/xlink" version="1.1" x="0px" y="0px" viewBox="0 0 48 60" enable-background="new 0 0 48 48" xml:space="preserve"><g><path d="M24,30.273c-3.459,0-6.273-2.814-6.273-6.273s2.814-6.273,6.273-6.273s6.273,2.814,6.273,6.273S27.459,30.273,24,30.273z    M24,19.727c-2.356,0-4.273,1.917-4.273,4.273c0,2.356,1.917,4.273,4.273,4.273c2.356,0,4.273-1.917,4.273-4.273   C28.273,21.644,26.356,19.727,24,19.727z"/><g><path d="M24,5.247c-0.552,0-1-0.448-1-1V1c0-0.552,0.448-1,1-1c0.553,0,1,0.448,1,1v3.247C25,4.799,24.553,5.247,24,5.247z"/><path d="M24,19.748c-0.552,0-1-0.448-1-1v-7.531c0-0.552,0.448-1,1-1c0.553,0,1,0.448,1,1v7.531C25,19.3,24.553,19.748,24,19.748z    "/><path d="M24,11.886c-2.374,0-4.305-1.931-4.305-4.305c0-2.374,1.931-4.305,4.305-4.305s4.305,1.931,4.305,4.305    C28.305,9.955,26.374,11.886,24,11.886z M24,5.276c-1.271,0-2.305,1.034-2.305,2.305S22.729,9.886,24,9.886    c1.271,0,2.305-1.034,2.305-2.305S25.271,5.276,24,5.276z"/><path d="M28.619,14.908h-9.238c-0.552,0-1-0.448-1-1s0.448-1,1-1h9.238c0.553,0,1,0.448,1,1S29.172,14.908,28.619,14.908z"/><g><path d="M24,48c-0.552,0-1-0.447-1-1v-3.246c0-0.553,0.448-1,1-1c0.553,0,1,0.447,1,1V47C25,47.553,24.553,48,24,48z"/><path d="M24,37.783c-0.552,0-1-0.447-1-1v-7.529c0-0.553,0.448-1,1-1c0.553,0,1,0.447,1,1v7.529     C25,37.336,24.553,37.783,24,37.783z"/><path d="M24,44.725c-2.374,0-4.305-1.932-4.305-4.306s1.931-4.305,4.305-4.305s4.305,1.931,4.305,4.305S26.374,44.725,24,44.725z      M24,38.114c-1.271,0-2.305,1.034-2.305,2.305c0,1.271,1.034,2.306,2.305,2.306c1.271,0,2.305-1.034,2.305-2.306     C26.305,39.148,25.271,38.114,24,38.114z"/><path d="M28.619,35.092h-9.238c-0.552,0-1-0.447-1-1s0.448-1,1-1h9.238c0.553,0,1,0.447,1,1S29.172,35.092,28.619,35.092z"/></g></g><g><path d="M6.892,15.124c-0.17,0-0.342-0.043-0.5-0.134l-2.811-1.624C3.104,13.09,2.94,12.478,3.216,12    c0.275-0.478,0.888-0.643,1.366-0.365l2.812,1.624c0.478,0.276,0.642,0.888,0.365,1.366C7.574,14.945,7.238,15.124,6.892,15.124z"/><path d="M19.45,22.374c-0.17,0-0.342-0.043-0.499-0.134l-6.521-3.766c-0.479-0.276-0.642-0.888-0.366-1.366    c0.275-0.479,0.888-0.644,1.366-0.366l6.521,3.766c0.479,0.276,0.642,0.888,0.366,1.366C20.132,22.195,19.796,22.374,19.45,22.374    z"/><path d="M9.781,20.096c-2.374,0-4.305-1.931-4.305-4.305s1.931-4.305,4.305-4.305c2.374,0,4.305,1.931,4.305,4.305    S12.155,20.096,9.781,20.096z M9.781,13.486c-1.271,0-2.305,1.034-2.305,2.305s1.034,2.305,2.305,2.305s2.305-1.034,2.305-2.305    S11.052,13.486,9.781,13.486z"/><path d="M12.95,23.954c-0.169,0-0.341-0.043-0.499-0.134c-0.479-0.276-0.642-0.888-0.366-1.366l4.619-8    c0.276-0.479,0.887-0.644,1.366-0.366c0.479,0.276,0.642,0.888,0.366,1.366l-4.619,8C13.632,23.775,13.296,23.954,12.95,23.954z"/><g><path d="M43.917,36.5c-0.17,0-0.342-0.043-0.499-0.134l-2.811-1.623c-0.479-0.276-0.643-0.888-0.366-1.366     c0.276-0.479,0.889-0.643,1.366-0.366l2.811,1.623c0.479,0.276,0.643,0.888,0.366,1.366C44.599,36.321,44.263,36.5,43.917,36.5z"/><path d="M35.069,31.393c-0.17,0-0.342-0.043-0.499-0.134l-6.521-3.767c-0.479-0.276-0.643-0.888-0.366-1.366     c0.276-0.479,0.889-0.643,1.366-0.366l6.521,3.767c0.479,0.276,0.643,0.888,0.366,1.366     C35.751,31.214,35.415,31.393,35.069,31.393z"/><path d="M38.219,36.514c-2.374,0-4.305-1.931-4.305-4.305s1.931-4.305,4.305-4.305s4.305,1.931,4.305,4.305     S40.593,36.514,38.219,36.514z M38.219,29.904c-1.271,0-2.305,1.034-2.305,2.305s1.034,2.305,2.305,2.305     s2.305-1.034,2.305-2.305S39.489,29.904,38.219,29.904z"/><path d="M30.429,34.046c-0.17,0-0.342-0.043-0.499-0.134c-0.479-0.276-0.643-0.888-0.366-1.366l4.619-7.999     c0.276-0.479,0.889-0.643,1.366-0.366c0.479,0.276,0.643,0.888,0.366,1.366l-4.619,7.999     C31.11,33.867,30.774,34.046,30.429,34.046z"/></g></g><g><path d="M4.083,36.5c-0.346,0-0.682-0.179-0.867-0.5c-0.276-0.479-0.112-1.09,0.366-1.366l2.811-1.623    c0.477-0.276,1.089-0.113,1.366,0.366c0.276,0.479,0.112,1.09-0.366,1.366l-2.811,1.623C4.425,36.457,4.252,36.5,4.083,36.5z"/><path d="M12.931,31.393c-0.346,0-0.682-0.179-0.867-0.5c-0.276-0.479-0.112-1.09,0.366-1.366l6.521-3.765    c0.479-0.276,1.089-0.113,1.366,0.366c0.276,0.479,0.112,1.09-0.366,1.366l-6.521,3.765C13.272,31.35,13.101,31.393,12.931,31.393    z"/><path d="M9.781,36.514c-2.374,0-4.305-1.931-4.305-4.305s1.931-4.305,4.305-4.305c2.374,0,4.305,1.931,4.305,4.305    S12.155,36.514,9.781,36.514z M9.781,29.904c-1.271,0-2.305,1.034-2.305,2.305s1.034,2.305,2.305,2.305s2.305-1.034,2.305-2.305    S11.052,29.904,9.781,29.904z"/><path d="M17.571,34.046c-0.346,0-0.682-0.179-0.867-0.5l-4.619-8.001c-0.276-0.479-0.112-1.09,0.366-1.366    c0.479-0.276,1.089-0.112,1.366,0.366l4.619,8.001c0.276,0.479,0.112,1.09-0.366,1.366C17.912,34.003,17.74,34.046,17.571,34.046z    "/><g><path d="M41.108,15.123c-0.346,0-0.682-0.179-0.867-0.5c-0.276-0.478-0.112-1.09,0.366-1.366l2.811-1.623     c0.477-0.277,1.089-0.112,1.366,0.366c0.276,0.478,0.112,1.09-0.366,1.366l-2.811,1.623C41.45,15.08,41.278,15.123,41.108,15.123     z"/><path d="M28.55,22.373c-0.346,0-0.682-0.179-0.867-0.5c-0.276-0.479-0.112-1.09,0.366-1.366l6.521-3.765     c0.477-0.276,1.089-0.112,1.366,0.366c0.276,0.479,0.112,1.09-0.366,1.366l-6.521,3.765C28.892,22.33,28.72,22.373,28.55,22.373z     "/><path d="M38.219,20.096c-2.374,0-4.305-1.931-4.305-4.305s1.931-4.305,4.305-4.305s4.305,1.931,4.305,4.305     S40.593,20.096,38.219,20.096z M38.219,13.486c-1.271,0-2.305,1.034-2.305,2.305s1.034,2.305,2.305,2.305     s2.305-1.034,2.305-2.305S39.489,13.486,38.219,13.486z"/><path d="M35.05,23.954c-0.346,0-0.682-0.179-0.867-0.5l-4.619-8c-0.276-0.478-0.112-1.09,0.366-1.366     c0.477-0.276,1.089-0.112,1.366,0.366l4.619,8c0.276,0.478,0.112,1.09-0.366,1.366C35.392,23.911,35.22,23.954,35.05,23.954z"/></g></g></g><text x="0" y="63" fill="#000000" font-size="5px" font-weight="bold" font-family="'Helvetica Neue', Helvetica, Arial-Unicode, Arial, Sans-serif">Created by Creative Stall</text><text x="0" y="68" fill="#000000" font-size="5px" font-weight="bold" font-family="'Helvetica Neue', Helvetica, Arial-Unicode, Arial, Sans-serif">from the Noun Project</text></svg>