<svg xmlns="http://www.w3.org/2000/svg" xmlns:xlink="http://www.w3.org/1999/xlink" version="1.1" x="0px" y="0px" viewBox="0 0 100 125" enable-background="new 0 0 100 100" xml:space="preserve"><path d="M59.019,12.739c1.356-2.908,4.812-4.166,7.72-2.809c2.907,1.354,4.165,4.81,2.808,7.718  c-1.354,2.906-4.811,4.165-7.717,2.81C58.922,19.102,57.662,15.645,59.019,12.739z M71.947,44.7L60.83,39.516l3.323-7.126  c1.67-3.579,0.121-7.832-3.458-9.501c-2.6-1.211-5.551-0.72-7.612,1.007l-0.006-0.006L29.687,43.52  c-1.514,1.267-1.711,3.523-0.439,5.037c1.266,1.513,3.522,1.711,5.034,0.441l10.431-8.752l-7.929,17.003l0,0L22.276,88.355  c-1.043,2.237-0.075,4.895,2.158,5.939c2.24,1.042,4.897,0.073,5.94-2.16l14.164-30.371l14.296,30.653  c1.041,2.237,3.699,3.206,5.938,2.163c2.237-1.045,3.203-3.703,2.162-5.938L52.43,57.535l5.379-11.538l11.116,5.184  c1.788,0.835,3.916,0.064,4.752-1.726C74.509,47.663,73.736,45.537,71.947,44.7z"/><text x="0" y="115" fill="#000000" font-size="5px" font-weight="bold" font-family="'Helvetica Neue', Helvetica, Arial-Unicode, Arial, Sans-serif">Created by Alexander Wiefel</text><text x="0" y="120" fill="#000000" font-size="5px" font-weight="bold" font-family="'Helvetica Neue', Helvetica, Arial-Unicode, Arial, Sans-serif">from the Noun Project</text></svg>