<svg xmlns="http://www.w3.org/2000/svg" xmlns:xlink="http://www.w3.org/1999/xlink" version="1.1" x="0px" y="0px" viewBox="0 0 100 125" enable-background="new 0 0 100 100" xml:space="preserve"><path d="M74.109,89.084l-4.712-3.308c0.523-0.853,1.041-1.874,1.518-3.118c0.143-0.373,0.026-0.795-0.288-1.041L54.294,68.839  l0.65-27.032c0-0.003-0.002-0.006-0.002-0.009c0.002-0.112-0.016-0.225-0.056-0.332C49.344,26.69,43.245,19.363,40.47,16.569  l17.48-2.079l7.316,13.076l-1.11,3.822c-0.14,0.482,0.137,0.986,0.618,1.126c0.487,0.138,0.986-0.138,1.126-0.619l1.216-4.187  c0.068-0.233,0.04-0.484-0.079-0.697L59.24,13.073c-0.18-0.321-0.53-0.501-0.9-0.459l-20.047,2.384  c-0.047,0.006-0.091,0.024-0.137,0.037c-0.028,0.008-0.055,0.012-0.082,0.022c-0.09,0.035-0.175,0.08-0.25,0.142l-2.159,1.774  l-1.433-2.455c2.055-0.877,3.5-2.917,3.5-5.29c0-3.17-2.579-5.748-5.749-5.748s-5.749,2.579-5.749,5.748s2.579,5.748,5.749,5.748  c0.136,0,0.269-0.011,0.402-0.02l1.858,3.184l-2.524,2.073c-0.081,0.066-0.147,0.147-0.2,0.236  c-0.019,0.031-0.027,0.066-0.042,0.099c-0.022,0.049-0.05,0.095-0.063,0.148l-5.883,23.646c-0.094,0.377,0.063,0.773,0.39,0.983  c0.151,0.096,0.321,0.144,0.491,0.144c0.201,0,0.401-0.067,0.565-0.197l8.512-6.771c0.393-0.312,0.458-0.884,0.145-1.277  c-0.311-0.392-0.884-0.46-1.276-0.145l-6.42,5.107l4.68-18.811c4.016,7.821,7.769,21.32,8.441,23.798L29.097,64.251  c-0.161,0.231-0.207,0.524-0.122,0.794l7.369,23.431c0.079,0.25,0.261,0.453,0.499,0.559c0.061,0.027,1.527,0.662,3.911,0.662  c0.001,0,0.001,0,0.001,0c0.123,0,0.247-0.015,0.371-0.018l1.677,5.026h-10.82c-0.502,0-0.908,0.407-0.908,0.908  c0,0.502,0.406,0.908,0.908,0.908h12.081c0.292,0,0.566-0.141,0.737-0.377c0.17-0.237,0.217-0.542,0.124-0.818l-1.942-5.821  c1.097-0.172,2.202-0.455,3.307-0.876c0.462-0.177,0.698-0.69,0.531-1.155l-7.878-22.016l4.515-6.614l1.52,14.5  c0.025,0.239,0.143,0.457,0.328,0.609l19.101,15.618c0.164,0.135,0.368,0.205,0.575,0.205c0.09,0,0.18-0.013,0.268-0.04  c0.089-0.028,1.5-0.499,3.105-2.472l4.137,2.905l-1.419,3.782l-3.032,0.783c-0.486,0.126-0.778,0.621-0.652,1.107  c0.106,0.41,0.475,0.682,0.878,0.681c0.075,0,0.152-0.009,0.228-0.029l3.49-0.902c0.287-0.074,0.519-0.283,0.624-0.561l1.832-4.883  C74.584,89.759,74.448,89.322,74.109,89.084z M28.05,9.228c0-2.168,1.764-3.931,3.932-3.931s3.932,1.764,3.932,3.931  s-1.764,3.931-3.932,3.931S28.05,11.396,28.05,9.228z M38.383,17.09c1.923,1.777,8.651,8.785,14.661,24.639  c-0.635,1.112-3.358,4.921-10.291,4.738c-0.891-3.283-4.954-17.762-9.28-25.343L38.383,17.09z M37.181,64.813  c-0.164,0.24-0.204,0.545-0.106,0.819l7.726,21.592c-1.369,0.435-2.726,0.656-4.047,0.656c0,0,0,0-0.001,0  c-1.337,0-2.317-0.232-2.813-0.382l-7.098-22.571L42.37,48.471l0.794,7.579L37.181,64.813z M65.106,87.796L46.744,72.781  l-2.571-24.53c4.533-0.227,7.307-2.006,8.885-3.596l-0.592,24.597c-0.006,0.287,0.122,0.56,0.349,0.737L68.97,82.627  C67.543,86.018,65.864,87.342,65.106,87.796z"/><text x="0" y="115" fill="#000000" font-size="5px" font-weight="bold" font-family="'Helvetica Neue', Helvetica, Arial-Unicode, Arial, Sans-serif">Created by Chanetsa</text><text x="0" y="120" fill="#000000" font-size="5px" font-weight="bold" font-family="'Helvetica Neue', Helvetica, Arial-Unicode, Arial, Sans-serif">from the Noun Project</text></svg>