<svg xmlns="http://www.w3.org/2000/svg" xmlns:xlink="http://www.w3.org/1999/xlink" version="1.1" x="0px" y="0px" viewBox="0 0 100 125" enable-background="new 0 0 100 100" xml:space="preserve"><g><path d="M61.735,94.567c-0.016,0-0.031-0.001-0.048-0.002c-0.021-0.002-0.04-0.005-0.06-0.01l-0.459-0.132l-0.381-0.301   l-0.236-0.344l-0.075-0.496l0.151-0.555l0.314-0.391l0.241-0.153c0.017-0.011,0.033-0.021,0.051-0.03   c0.019-0.009,0.037-0.017,0.056-0.023l7.755-3.05l0.188-0.188l0.139-0.245l0.067-0.268l-0.007-0.277l-0.074-0.262l-0.169-0.253   L58.736,75.261L54.5,68.876l-4.17-7.084l-0.63-0.184l-0.3,0.11l-1.149,1.149l-3.66,5.553l-3.656,8.523l-1.345,7.813l-1.884,9.795   l-11.198-0.791c-0.024-0.002-0.048-0.005-0.072-0.009c-0.021-0.005-0.043-0.011-0.063-0.018l-0.439-0.169l-0.331-0.251   l-0.239-0.545l-0.047-0.422l0.231-0.549l0.358-0.354l0.276-0.132c0.018-0.009,0.037-0.018,0.057-0.024   c0.02-0.007,0.04-0.013,0.061-0.018l7.508-1.834l0.462-0.171l0.308-0.189l0.336-0.326l0.203-0.303l0.187-0.436l0.078-0.378   l1.033-10.37l1.996-7.396l1.096-3.719l4.618-12.069l0.028-0.352l-0.136-17.172l-0.107-0.244l-0.151-0.204l-0.216-0.162   l-0.232-0.104l-0.251-0.03l-0.268,0.031l-0.241,0.09l-0.238,0.178l-2.921,2.785c-0.007,0.007-0.015,0.014-0.022,0.021   c-0.007,0.007-0.015,0.013-0.022,0.019l-0.371,0.292l-0.463,0.265c-0.013,0.007-0.026,0.015-0.039,0.021   c-0.012,0.006-0.024,0.011-0.036,0.016l-7.285,2.923l-1.265,0.365c-0.011,0.003-0.022,0.006-0.034,0.009l0,0l0,0   c-0.011,0.002-0.021,0.004-0.032,0.006l-0.328,0.058l-0.484-0.081l-0.232-0.1c-0.009-0.004-0.019-0.008-0.028-0.013   c-0.011-0.005-0.021-0.011-0.031-0.017l-0.168-0.095c-0.014-0.008-0.028-0.016-0.042-0.025c-0.014-0.009-0.026-0.019-0.039-0.029   l-0.341-0.324l-0.176-0.39l-0.06-0.365l0.155-0.55l0.272-0.342l0.208-0.153c0.016-0.012,0.033-0.024,0.05-0.034   c0.017-0.01,0.034-0.019,0.051-0.027l6.82-3.203l3.586-2.103l0.246-0.255l0.208-0.302l0.123-0.288l2.489-6.759l1.467-5.384   l0.897-6.95l0.097-1.811l-0.029-0.477l-0.126-0.456l-1.295-3.237l-0.067-0.446c-0.002-0.014-0.004-0.027-0.005-0.041   c-0.001-0.017-0.002-0.034-0.001-0.051l0.023-0.607l0.203-0.568l0.257-0.368C43.527,7.026,43.537,7.013,43.547,7   c0.009-0.011,0.019-0.021,0.028-0.032l1.297-1.375c0.01-0.012,0.021-0.022,0.033-0.033c0.01-0.009,0.021-0.018,0.031-0.026   l0.353-0.252l0.384-0.132l0.286-0.034c0.022-0.003,0.045-0.003,0.068-0.004c0.013,0,0.026,0,0.04,0.001l0.555,0.034   c0.015,0,0.031,0.002,0.047,0.005l0.606,0.095l0.479,0.182l0.513,0.301l0.525,0.481l0.292,0.416   c0.007,0.009,0.013,0.019,0.019,0.028c0.005,0.007,0.009,0.015,0.014,0.022l0.506,0.888c0.005,0.008,0.01,0.017,0.014,0.025   c0.005,0.01,0.01,0.02,0.014,0.029l0.191,0.426l0.157,0.624l0.022,0.466L49.963,9.67c-0.001,0.015-0.003,0.029-0.006,0.043   c-0.001,0.009-0.003,0.018-0.005,0.026l-1.097,4.972l-0.054,0.507l0.039,0.374l0.146,0.438l7.57,17.039l3.527,9.261l1.292,5.478   c0.005,0.02,0.009,0.04,0.012,0.061c0.002,0.019,0.004,0.037,0.004,0.056l0.014,0.358L61.208,48.8l-0.307,0.319l-0.23,0.132   c-0.016,0.009-0.031,0.018-0.047,0.025c-0.016,0.007-0.031,0.013-0.047,0.019l-0.322,0.118c-0.02,0.008-0.039,0.014-0.06,0.019   c-0.02,0.005-0.039,0.009-0.06,0.011l-0.399,0.059l-0.579-0.199l-0.367-0.346l-0.142-0.264c-0.011-0.019-0.021-0.039-0.029-0.06   c-0.008-0.02-0.015-0.04-0.02-0.06l-1.408-4.915l-2.475-6.394L54.6,37.159l-0.306-0.08L53.992,37.2l-0.094,0.115l-0.059,0.152   l-0.014,0.203l1.539,17.012l1.953,6.298l4.74,11.385l12.7,16.778l-2.64,5.391l-10.373,0.034   C61.742,94.567,61.738,94.567,61.735,94.567z"/></g><text x="0" y="115" fill="#000000" font-size="5px" font-weight="bold" font-family="'Helvetica Neue', Helvetica, Arial-Unicode, Arial, Sans-serif">Created by Daniel Natoli Rojo</text><text x="0" y="120" fill="#000000" font-size="5px" font-weight="bold" font-family="'Helvetica Neue', Helvetica, Arial-Unicode, Arial, Sans-serif">from the Noun Project</text></svg>