<svg xmlns="http://www.w3.org/2000/svg" xmlns:xlink="http://www.w3.org/1999/xlink" version="1.1" x="0px" y="0px" viewBox="0 0 100 125" enable-background="new 0 0 100 100" xml:space="preserve"><path d="M50.858,73.78H14.007l0.501-3.503v-2.359c0-6.785,5.52-12.305,12.305-12.305h5.439c12.61,0,22.87-10.259,22.87-22.87V22.167  h24.737v14.648l2.986,17.878v17.296H65.183L50.858,73.78z M17.05,71.142h33.645l14.406-1.792h15.105V54.802L77.22,36.924V24.805  H57.76v7.938c0,14.065-11.443,25.508-25.508,25.508h-5.439c-5.33,0-9.666,4.336-9.666,9.666l-0.013,2.64L17.05,71.142z"/><path d="M66.235,81.544h-2.102c-1.347,0-2.442-1.096-2.442-2.442v-0.333l-2.043-1.634l-10.255,1.541  c-0.087,1.268-1.147,2.272-2.437,2.272h-1.169c-0.932,0-1.77-0.518-2.185-1.352l-0.22-0.44h-1.266l-1.927,1.514  c-0.993,0.781-2.553,0.624-3.371-0.34l-0.996-1.174h-1.471l-1.927,1.514c-0.993,0.782-2.554,0.623-3.372-0.34l-0.995-1.173h-0.365  l-0.52,1.039c-0.417,0.833-1.254,1.35-2.185,1.35h-2.304c-0.97,0-1.848-0.574-2.238-1.462l-0.405-0.927h-0.113l-0.52,1.04  c-0.417,0.833-1.254,1.35-2.185,1.35h-3.259c-1.347,0-2.442-1.096-2.442-2.442v-5.224c0-1.341,1.091-2.437,2.433-2.442l36.62-0.145  l14.957-1.335c0.073-0.006,0.145-0.009,0.217-0.009h17.694v8.558c0,1.347-1.096,2.442-2.442,2.442h-0.758  c-0.882,0-1.698-0.478-2.129-1.246l-0.643-1.143h-0.495l-2.843,1.763c-0.75,0.464-1.741,0.48-2.505,0.042l-2.1-1.208h-0.518  L68.364,80.3C67.933,81.067,67.117,81.544,66.235,81.544z M64.33,78.906h1.791l0.644-1.144c0.433-0.769,1.249-1.245,2.129-1.245  h0.686c0.427,0,0.848,0.113,1.219,0.326l2.042,1.174l2.792-1.731c0.388-0.24,0.833-0.366,1.287-0.366h0.666  c0.881,0,1.697,0.477,2.129,1.245l0.644,1.144h0.447v-5.723H65.748L50.58,73.93L14.16,74.074v4.832h2.942l0.52-1.039  c0.416-0.833,1.253-1.35,2.185-1.35h0.363c0.97,0,1.849,0.574,2.238,1.463l0.405,0.926h2.055l0.52-1.039  c0.416-0.833,1.253-1.351,2.185-1.351h0.578c0.719,0,1.397,0.314,1.862,0.862l0.932,1.098l1.831-1.438  c0.428-0.336,0.964-0.522,1.509-0.522h1.63c0.718,0,1.397,0.314,1.862,0.862l0.932,1.098l1.832-1.438  c0.427-0.336,0.963-0.522,1.509-0.522h1.456c0.931,0,1.768,0.517,2.185,1.35l0.221,0.442h0.859c0.088-1.13,0.933-2.048,2.073-2.219  l10.503-1.576c0.673-0.101,1.361,0.087,1.887,0.507l2.183,1.746c0.583,0.467,0.917,1.163,0.917,1.908V78.906z"/><path d="M78.54,38c-0.014,0-0.028,0-0.042,0c-14.782,0-21.883-13.461-22.178-14.019c-0.34-0.644-0.095-1.38,0.549-1.721  c0.644-0.341,1.441-0.065,1.783,0.577c0.065,0.123,6.707,12.335,19.929,12.753c0.729,0.023,1.3,0.518,1.277,1.246  C79.835,37.551,79.249,38,78.54,38z"/><path d="M79.137,25.33C79.137,25.33,79.138,25.33,79.137,25.33l-1.801-0.049l0.278-1.513c0.877-4.733,3.673-5.101,4.509-5.101  c1.034,0,2.062,0.458,2.751,1.224c0.604,0.671,0.887,1.494,0.799,2.317C85.383,24.924,81.454,25.33,79.137,25.33z M82.124,21.306  c-0.548,0-1.049,0.475-1.426,1.305c1.354-0.148,2.211-0.469,2.363-0.719c-0.006-0.016-0.046-0.123-0.149-0.237  C82.761,21.486,82.474,21.306,82.124,21.306z"/><circle cx="46.362" cy="56.335" r="2.663"/><circle cx="50.542" cy="53.349" r="2.663"/><circle cx="54.126" cy="49.765" r="2.663"/><circle cx="57.112" cy="44.987" r="2.663"/><circle cx="58.307" cy="40.209" r="2.663"/><circle cx="58.307" cy="34.236" r="2.663"/><path d="M45.841,56.311c-0.446,0-0.881-0.226-1.129-0.635l-2.763-4.554c-0.378-0.623-0.18-1.435,0.443-1.812  c0.624-0.378,1.435-0.179,1.812,0.443l2.763,4.554c0.378,0.623,0.18,1.435-0.443,1.812C46.31,56.249,46.074,56.311,45.841,56.311z"/><path d="M49.647,53.324c-0.404,0-0.802-0.185-1.061-0.534L45.6,48.758c-0.434-0.585-0.311-1.412,0.275-1.845  c0.584-0.435,1.411-0.311,1.845,0.275l2.986,4.032c0.434,0.585,0.311,1.412-0.275,1.845C50.196,53.24,49.92,53.324,49.647,53.324z"/><path d="M53.09,50.237c-0.261,0-0.524-0.077-0.754-0.238l-4.564-3.184c-0.598-0.417-0.744-1.239-0.327-1.837  c0.417-0.597,1.24-0.744,1.837-0.327l4.564,3.184c0.598,0.417,0.744,1.239,0.327,1.837C53.917,50.04,53.507,50.237,53.09,50.237z"/><path d="M55.82,45.955c-0.157,0-0.318-0.028-0.474-0.088l-3.935-1.515c-0.68-0.262-1.019-1.025-0.757-1.706  c0.261-0.679,1.025-1.021,1.706-0.757l3.935,1.515c0.68,0.262,1.019,1.025,0.757,1.706C56.851,45.633,56.351,45.955,55.82,45.955z"/><path d="M60,44h-4c-0.829,0-1.5-0.671-1.5-1.5S55.171,41,56,41h4c0.829,0,1.5,0.671,1.5,1.5S60.829,44,60,44z"/><path d="M60,38h-4c-0.829,0-1.5-0.671-1.5-1.5S55.171,35,56,35h4c0.829,0,1.5,0.671,1.5,1.5S60.829,38,60,38z"/><path d="M46.25,40.606C46.25,40.606,46.25,40.606,46.25,40.606c-1.426,0-4.769-0.545-5.012-5.593  c-0.096-1.993,0.365-3.539,1.37-4.594c0.93-0.976,2.249-1.47,3.921-1.47c2.182,0,4.286,0.872,4.375,0.909l7.522,2.797  c0.526,0.195,0.892,0.685,0.931,1.247c0.038,0.562-0.258,1.097-0.756,1.362l-7.59,4.021C50.934,39.328,48.596,40.606,46.25,40.606z   M46.529,31.587c-0.922,0-1.598,0.22-2.01,0.652c-0.488,0.512-0.705,1.402-0.645,2.646c0.131,2.715,1.274,3.082,2.375,3.082h0  c1.656,0,3.489-0.994,3.507-1.004l5.231-2.772l-5.055-1.88C49.869,32.285,48.17,31.587,46.529,31.587z"/><path d="M64.281,52.429c-0.429,0-0.85-0.209-1.104-0.595l-9.332-14.185c-0.4-0.609-0.231-1.427,0.377-1.828  c0.609-0.399,1.427-0.231,1.828,0.377l9.332,14.185c0.4,0.609,0.231,1.427-0.377,1.828C64.781,52.358,64.529,52.429,64.281,52.429z"/><path d="M47.8,45.284C47.8,45.284,47.8,45.284,47.8,45.284c-1.708,0-3.249-0.989-4.581-2.939c-1.354-1.983-1.684-3.815-0.978-5.445  c1.352-3.123,5.988-3.927,6.512-4.009l8.152-1.584c0.513,0,0.99,0.277,1.245,0.724s0.25,0.998-0.012,1.44l-4.356,7.395  C53.537,41.299,51.188,45.284,47.8,45.284z M54.502,34.444l-5.291,1.045c-1.01,0.162-3.894,0.939-4.55,2.462  c-0.321,0.743-0.073,1.721,0.736,2.905c0.811,1.187,1.619,1.789,2.402,1.789c1.575,0,3.239-2.296,3.698-3.1L54.502,34.444z"/><text x="0" y="115" fill="#000000" font-size="5px" font-weight="bold" font-family="'Helvetica Neue', Helvetica, Arial-Unicode, Arial, Sans-serif">Created by Eric Bird</text><text x="0" y="120" fill="#000000" font-size="5px" font-weight="bold" font-family="'Helvetica Neue', Helvetica, Arial-Unicode, Arial, Sans-serif">from the Noun Project</text></svg>